<?xml version="1.0" encoding="UTF-8" standalone="no"?>
<!-- Created with Inkscape (http://www.inkscape.org/) -->

<svg
   width="300mm"
   height="300mm"
   viewBox="0 0 300 300"
   version="1.1"
   id="svg1"
   inkscape:version="1.3.2 (091e20e, 2023-11-25, custom)"
   sodipodi:docname="attack2.svg"
   xml:space="preserve"
   xmlns:inkscape="http://www.inkscape.org/namespaces/inkscape"
   xmlns:sodipodi="http://sodipodi.sourceforge.net/DTD/sodipodi-0.dtd"
   xmlns="http://www.w3.org/2000/svg"
   xmlns:svg="http://www.w3.org/2000/svg"><sodipodi:namedview
     id="namedview1"
     pagecolor="#696969"
     bordercolor="#000000"
     borderopacity="0.25"
     inkscape:showpageshadow="2"
     inkscape:pageopacity="0.0"
     inkscape:pagecheckerboard="0"
     inkscape:deskcolor="#d1d1d1"
     inkscape:document-units="mm"
     inkscape:zoom="0.0625"
     inkscape:cx="-1784"
     inkscape:cy="2152"
     inkscape:window-width="1920"
     inkscape:window-height="991"
     inkscape:window-x="-9"
     inkscape:window-y="-9"
     inkscape:window-maximized="1"
     inkscape:current-layer="layer1" /><defs
     id="defs1" /><g
     inkscape:label="Warstwa 1"
     inkscape:groupmode="layer"
     id="layer1"><path
       id="rect1"
       style="fill:#ffffff;stroke-width:20.5364;stroke-linecap:square;stroke-miterlimit:6;stroke-dashoffset:38.7337;paint-order:fill markers stroke"
       d="M 130.71074,8.1833349 V 36.37748 C 82.437933,44.625034 44.625034,82.437933 36.37748,130.71074 H 8.1833349 v 38.57801 H 36.37748 c 8.24736,48.273 46.0603,86.08616 94.33326,94.33378 v 28.19414 h 38.57801 v -28.19414 c 48.27315,-8.24742 86.08636,-46.06063 94.33378,-94.33378 h 28.19414 V 130.71074 H 263.76205 C 255.55015,82.341629 217.6579,44.4496 169.28875,36.237953 V 8.1833349 Z m 0,61.0438191 v 26.426811 h 38.57801 V 69.227154 c 30.41002,7.329881 54.15397,31.073636 61.4841,61.483586 h -26.42681 v 38.57801 h 26.42681 c -7.32996,30.41015 -31.07395,54.15414 -61.4841,61.4841 v -26.42681 h -38.57801 v 26.42681 C 100.30079,223.44272 76.557035,199.69877 69.227154,169.28875 H 95.653965 V 130.71074 H 69.227154 C 76.5572,100.30093 100.30093,76.5572 130.71074,69.227154 Z m 19.28927,58.602626 a 22.170008,22.170008 0 0 0 -22.17023,22.17023 22.170008,22.170008 0 0 0 22.17023,22.1697 22.170008,22.170008 0 0 0 22.1697,-22.1697 22.170008,22.170008 0 0 0 -22.1697,-22.17023 z" /></g></svg>
