<?xml version="1.0" encoding="UTF-8" standalone="no"?>
<!-- Created with Inkscape (http://www.inkscape.org/) -->

<svg
   width="300mm"
   height="300mm"
   viewBox="0 0 300 300"
   version="1.1"
   id="svg1"
   inkscape:version="1.3.2 (091e20e, 2023-11-25, custom)"
   sodipodi:docname="attack.svg"
   xml:space="preserve"
   xmlns:inkscape="http://www.inkscape.org/namespaces/inkscape"
   xmlns:sodipodi="http://sodipodi.sourceforge.net/DTD/sodipodi-0.dtd"
   xmlns="http://www.w3.org/2000/svg"
   xmlns:svg="http://www.w3.org/2000/svg"><sodipodi:namedview
     id="namedview1"
     pagecolor="#696969"
     bordercolor="#000000"
     borderopacity="0.25"
     inkscape:showpageshadow="2"
     inkscape:pageopacity="0.0"
     inkscape:pagecheckerboard="0"
     inkscape:deskcolor="#d1d1d1"
     inkscape:document-units="mm"
     inkscape:zoom="0.5"
     inkscape:cx="452"
     inkscape:cy="617"
     inkscape:window-width="1920"
     inkscape:window-height="991"
     inkscape:window-x="-9"
     inkscape:window-y="-9"
     inkscape:window-maximized="1"
     inkscape:current-layer="layer1" /><defs
     id="defs1" /><g
     inkscape:label="Warstwa 1"
     inkscape:groupmode="layer"
     id="layer1"><path
       id="path4"
       style="fill:#ffffff;fill-opacity:1;stroke:none;stroke-width:62.3711;stroke-dasharray:none;stroke-opacity:1"
       d="M 7.1492867,7.6562353 19.908716,84.213837 191.59592,225.2445 202.55132,214.28857 58.802971,73.117352 56.980364,57.932245 72.848633,60.439063 213.58164,202.69497 224.51845,191.75818 81.884778,20.415146 Z m 285.7014233,0 -74.73602,12.7589107 -57.3324,68.872277 17.28679,20.765137 49.08228,-49.613497 15.8683,-2.506818 -1.82316,15.185107 -51.64905,50.723008 17.17931,20.63801 73.36401,-60.264533 z M 95.475157,167.74 l -19.994116,24.01818 10.93679,10.93679 23.138639,-23.38875 z m -59.73381,4.82089 -8.07084,30.12013 23.291599,23.2916 -43.8128193,43.81282 22.5577853,22.55832 43.812849,-43.81335 23.037349,23.03839 30.2431,-8.10389 z m 228.516803,0 -91.05905,90.90402 30.24363,8.10389 23.03685,-23.03839 43.81282,43.81335 22.55831,-22.55832 -43.81282,-43.81282 23.29107,-23.2916 z m -141.89832,17.26303 -24.911652,24.46465 10.955902,10.95593 28.53728,-23.44249 z" /></g></svg>
