<?xml version="1.0" encoding="UTF-8" standalone="no"?>
<!-- Created with Inkscape (http://www.inkscape.org/) -->

<svg
   width="300mm"
   height="300mm"
   viewBox="0 0 300 300"
   version="1.1"
   id="svg1"
   inkscape:version="1.3.2 (091e20e, 2023-11-25, custom)"
   sodipodi:docname="Cavalry.svg"
   xml:space="preserve"
   xmlns:inkscape="http://www.inkscape.org/namespaces/inkscape"
   xmlns:sodipodi="http://sodipodi.sourceforge.net/DTD/sodipodi-0.dtd"
   xmlns="http://www.w3.org/2000/svg"
   xmlns:svg="http://www.w3.org/2000/svg"><sodipodi:namedview
     id="namedview1"
     pagecolor="#696969"
     bordercolor="#000000"
     borderopacity="0.25"
     inkscape:showpageshadow="2"
     inkscape:pageopacity="0.0"
     inkscape:pagecheckerboard="0"
     inkscape:deskcolor="#d1d1d1"
     inkscape:document-units="mm"
     inkscape:zoom="0.5"
     inkscape:cx="483"
     inkscape:cy="693"
     inkscape:window-width="1920"
     inkscape:window-height="991"
     inkscape:window-x="-9"
     inkscape:window-y="-9"
     inkscape:window-maximized="1"
     inkscape:current-layer="layer1" /><defs
     id="defs1" /><g
     inkscape:label="Warstwa 1"
     inkscape:groupmode="layer"
     id="layer1"><path
       id="path1"
       style="stroke-width:0.698098;fill:#ffffff;fill-opacity:1"
       d="M 20.213326,11.210198 48.637204,50.228947 34.274723,64.591428 34.53512,193.48757 71.167073,213.77356 c 0,0 35.771567,-27.05247 55.596627,-41.1538 l 20.46908,12.89012 C 126.24219,202.44966 34.341797,268.92952 34.341797,268.92952 v 20.69157 H 257.44753 c 0,0 22.33914,-60.08112 22.33914,-134.94222 0,-105.065033 -75.5125,-144.6833761 -134.03489,-144.297159 z m 66.897931,66.188961 c 7.710984,0 13.962223,6.250728 13.962223,13.961714 0,7.710986 -6.251239,13.962227 -13.962223,13.962227 -7.710961,0 -13.961714,-6.251241 -13.961714,-13.962227 0,-7.710986 6.250753,-13.961714 13.961714,-13.961714 z"
       sodipodi:nodetypes="ccccccccccsscsssss" /></g></svg>
