<?xml version="1.0" encoding="UTF-8" standalone="no"?>
<!-- Created with Inkscape (http://www.inkscape.org/) -->

<svg
   width="300mm"
   height="300mm"
   viewBox="0 0 300 300"
   version="1.1"
   id="svg1"
   inkscape:version="1.3.2 (091e20e, 2023-11-25, custom)"
   sodipodi:docname="dumpling.svg"
   xml:space="preserve"
   xmlns:inkscape="http://www.inkscape.org/namespaces/inkscape"
   xmlns:sodipodi="http://sodipodi.sourceforge.net/DTD/sodipodi-0.dtd"
   xmlns="http://www.w3.org/2000/svg"
   xmlns:svg="http://www.w3.org/2000/svg"><sodipodi:namedview
     id="namedview1"
     pagecolor="#696969"
     bordercolor="#000000"
     borderopacity="0.25"
     inkscape:showpageshadow="2"
     inkscape:pageopacity="0.0"
     inkscape:pagecheckerboard="0"
     inkscape:deskcolor="#d1d1d1"
     inkscape:document-units="mm"
     inkscape:zoom="0.5"
     inkscape:cx="487"
     inkscape:cy="787"
     inkscape:window-width="1920"
     inkscape:window-height="991"
     inkscape:window-x="-9"
     inkscape:window-y="-9"
     inkscape:window-maximized="1"
     inkscape:current-layer="layer1" /><defs
     id="defs1" /><g
     inkscape:label="Warstwa 1"
     inkscape:groupmode="layer"
     id="layer1"><path
       id="path10"
       style="color:#000000;opacity:1;fill:#ffffff;stroke-linecap:round;stroke-miterlimit:6.2;stroke-dashoffset:150.632;-inkscape-stroke:none;paint-order:markers stroke fill"
       d="m 165.38244,16.112084 c -8.51956,0.199874 -17.086,2.222306 -24.9375,6.433199 C 124.89023,16.045372 108.1515,16.793698 94.561954,22.427978 83.241617,27.121437 72.953269,35.938656 67.962544,47.422318 55.892874,49.553705 45.247566,56.147223 37.639847,64.785599 30.017402,73.440695 24.968517,85.698506 25.770804,98.131367 13.911925,107.3423 6.1837892,120.96355 7.5248892,136.36573 c 1.2301192,14.12716 10.0771488,25.69313 21.0643468,32.55046 0.621525,0.38791 1.278562,0.71879 1.915646,1.08211 3.085482,-2.69187 6.429592,-5.07543 9.9689,-7.11326 2.927173,-7.64585 7.406416,-14.51521 12.673129,-20.13159 -2.565125,-0.67462 -4.809992,-1.61309 -6.545854,-2.69648 -3.932295,-2.45421 -5.015483,-4.68732 -5.18573,-6.64248 -0.232975,-2.67566 1.949323,-7.87724 10.656197,-11.59568 l 17.722949,-7.5706 -9.713102,-16.644459 c -1.441081,-2.469934 -1.026856,-5.663277 3.088184,-10.335803 4.115039,-4.672528 10.696362,-7.327247 15.398026,-6.40426 l 22.392949,4.394563 -2.185914,-22.714892 c -0.164787,-1.712533 1.765194,-5.766743 8.814454,-8.689392 7.04924,-2.92265 16.34877,-3.045257 24.36957,2.468583 l 11.1404,7.658447 9.97459,-9.125024 c 3.04082,-2.781675 9.14543,-4.584103 15.21871,-4.521688 2.02443,0.02081 4.04407,0.248678 5.94744,0.716752 3.80673,0.936146 6.78379,2.672448 8.18348,4.023527 1.39969,1.351078 1.50455,1.676216 1.51929,3.001884 l 0.25786,23.281266 22.10201,-7.326168 c 8.05443,-2.669863 11.5766,-0.849207 14.17743,1.400432 2.60083,2.249637 3.69472,5.746621 3.19722,8.304919 l -3.81837,19.632393 19.99206,0.61547 c 12.71119,0.39146 18.43879,6.96916 18.73839,10.38076 0.17214,1.95955 -0.50856,4.35227 -3.95324,7.45329 -3.4447,3.10102 -9.46925,5.98706 -16.69718,6.62078 -3.4733,0.30454 -8.65372,0.52244 -14.8146,0.72916 7.42596,4.80324 14.24163,11.14011 19.47478,19.8453 0.84286,1.40207 1.46296,3.0578 2.18592,4.6054 3.75766,1.62403 7.32176,3.58535 10.62726,5.83531 8.30556,-2.61127 15.79362,-6.78029 21.98367,-12.35274 9.62495,-8.66465 16.32276,-21.59134 15.08228,-35.71306 -1.7439,-19.857554 -17.08238,-33.4833 -35.82417,-38.828125 -2.08834,-8.770467 -6.91591,-16.802447 -13.91801,-22.85907 -7.83204,-6.774471 -18.61943,-10.619586 -30.25397,-10.625191 -1.85154,-3.148839 -3.95475,-6.087685 -6.43165,-8.478552 -6.78365,-6.548071 -15.06335,-10.46186 -23.68537,-12.582178 -4.31103,-1.060159 -8.79809,-1.711481 -13.33614,-1.878955 -1.21293,-0.04476 -2.42921,-0.05336 -3.64629,-0.02481 z M 138.62438,122.20535 c -2.17102,0.0314 -4.31742,0.18913 -6.42389,0.46716 -11.08805,1.46353 -22.34413,6.73043 -29.72636,15.60524 -11.181994,-0.77223 -22.092493,2.60486 -30.855479,8.4336 -8.795233,5.85017 -16.259279,15.48893 -18.750276,26.71465 -12.623071,5.5535 -22.680911,15.89629 -25.181409,30.04312 -2.337523,13.22497 2.934345,25.94966 11.218953,34.82423 8.28461,8.87457 19.684762,14.83419 32.679659,17.12299 18.328659,3.22825 54.528532,6.60472 82.653872,11.55847 28.12531,4.95373 57.20889,13.07432 73.48854,15.94166 12.9949,2.28882 25.7456,0.58235 36.56262,-4.92786 10.81701,-5.51023 20.11435,-15.66431 22.44101,-28.88661 3.22461,-18.32282 -7.06017,-34.23365 -22.3144,-43.66194 0.0413,-8.19807 -2.36223,-16.34264 -7.08587,-23.30865 -5.33688,-7.87035 -13.91121,-13.89259 -24.09362,-16.82843 -0.91077,-3.03469 -2.04286,-5.95234 -3.58014,-8.50956 -4.58605,-7.62872 -11.13677,-13.1664 -18.40043,-17.16226 -11.21329,-6.16862 -24.84653,-9.1801 -38.27312,-6.21874 -10.41155,-7.81582 -22.70545,-11.37569 -34.35966,-11.20707 z m 0.47388,33.91628 c 0.83432,-0.0165 1.68135,0.0137 2.53421,0.0935 5.11713,0.47925 10.44256,2.74545 14.48594,7.48068 l 8.75605,10.25364 11.96464,-6.21668 c 3.85435,-2.0023 12.20501,-1.60141 18.0666,1.62316 2.9308,1.61228 4.93448,3.68312 5.67562,4.91598 0.74115,1.23287 0.65501,1.08155 0.45889,1.84743 l -5.75934,22.49424 23.18153,-1.35134 c 7.25449,-0.42327 9.32925,1.75252 10.79108,3.90829 1.46181,2.15576 1.53542,4.92703 0.7462,6.54482 l -8.74417,17.92758 19.09755,5.75211 c 10.53926,3.17475 13.33876,9.71383 12.96665,11.82822 -0.21659,1.2309 -1.00002,2.79064 -4.42764,4.53667 -3.42762,1.74604 -9.08398,2.83732 -15.27917,1.74615 -11.64014,-2.05019 -43.14769,-10.59718 -73.48854,-15.94115 -30.34086,-5.34395 -68.287525,-9.03009 -82.654386,-11.56053 -6.1952,-1.09116 -11.140355,-4.05151 -13.765568,-6.86367 -2.625213,-2.81215 -2.825892,-4.54078 -2.609143,-5.76709 0.287665,-1.62749 2.772592,-5.30456 10.818461,-6.45335 l 19.027262,-2.71508 -5.060673,-18.54254 c -0.48543,-1.77915 0.200505,-3.82543 4.527372,-6.70346 4.326869,-2.87803 10.201405,-3.53791 13.535095,-1.90428 l 20.43751,10.01593 3.75791,-22.44721 c 0.12074,-0.72121 2.08573,-3.46967 8.50181,-4.31654 0.80201,-0.10586 1.62392,-0.16906 2.45825,-0.18551 z" /></g></svg>
