<?xml version="1.0" encoding="UTF-8" standalone="no"?>
<!-- Created with Inkscape (http://www.inkscape.org/) -->

<svg
   width="300mm"
   height="300mm"
   viewBox="0 0 300 300"
   version="1.1"
   id="svg1"
   inkscape:version="1.3.2 (091e20e, 2023-11-25, custom)"
   sodipodi:docname="next-turn.svg"
   xml:space="preserve"
   xmlns:inkscape="http://www.inkscape.org/namespaces/inkscape"
   xmlns:sodipodi="http://sodipodi.sourceforge.net/DTD/sodipodi-0.dtd"
   xmlns="http://www.w3.org/2000/svg"
   xmlns:svg="http://www.w3.org/2000/svg"><sodipodi:namedview
     id="namedview1"
     pagecolor="#696969"
     bordercolor="#000000"
     borderopacity="0.25"
     inkscape:showpageshadow="2"
     inkscape:pageopacity="0.0"
     inkscape:pagecheckerboard="0"
     inkscape:deskcolor="#d1d1d1"
     inkscape:document-units="mm"
     inkscape:zoom="0.41640733"
     inkscape:cx="272.56965"
     inkscape:cy="411.85634"
     inkscape:window-width="1920"
     inkscape:window-height="991"
     inkscape:window-x="-9"
     inkscape:window-y="-9"
     inkscape:window-maximized="1"
     inkscape:current-layer="layer1" /><defs
     id="defs1" /><g
     inkscape:label="Warstwa 1"
     inkscape:groupmode="layer"
     id="layer1"><path
       id="path2"
       style="opacity:1;fill:#ffffff;stroke-width:62.1823;stroke-linecap:square;stroke-miterlimit:6;stroke-dashoffset:38.7337;paint-order:fill markers stroke"
       d="M 163.50732,9.3174545 C 147.48245,30.448369 132.17438,43.194997 113.64896,57.764229 133.83533,78.371126 161.02118,104.41877 166.82244,109.26905 112.45392,108.56154 59.466761,105.46758 5.4658198,98.841687 c 0,0 4.2817574,23.556823 4.2817574,50.936593 0,26.89251 -4.2817574,51.60254 -4.2817574,51.60254 C 59.039807,193.31878 112.8728,189.74841 166.82244,187.81967 c -5.80126,4.85028 -32.98711,30.89717 -53.17348,51.50407 18.74294,14.48036 35.53506,29.60285 49.85836,48.44753 60.20622,-79.96139 135.46384,-139.2269 135.46384,-139.2269 0,0 -75.25762,-59.2655 -135.46384,-139.2269011 z"
       sodipodi:nodetypes="ccccsccccccc" /></g></svg>
