<?xml version="1.0" encoding="UTF-8" standalone="no"?>
<!-- Created with Inkscape (http://www.inkscape.org/) -->

<svg
   width="300mm"
   height="300mm"
   viewBox="0 0 300 300"
   version="1.1"
   id="svg1"
   inkscape:version="1.3.2 (091e20e, 2023-11-25, custom)"
   sodipodi:docname="production.svg"
   xml:space="preserve"
   xmlns:inkscape="http://www.inkscape.org/namespaces/inkscape"
   xmlns:sodipodi="http://sodipodi.sourceforge.net/DTD/sodipodi-0.dtd"
   xmlns="http://www.w3.org/2000/svg"
   xmlns:svg="http://www.w3.org/2000/svg"><sodipodi:namedview
     id="namedview1"
     pagecolor="#696969"
     bordercolor="#000000"
     borderopacity="0.25"
     inkscape:showpageshadow="2"
     inkscape:pageopacity="0.0"
     inkscape:pagecheckerboard="0"
     inkscape:deskcolor="#d1d1d1"
     inkscape:document-units="mm"
     inkscape:zoom="0.25"
     inkscape:cx="92"
     inkscape:cy="706"
     inkscape:window-width="1920"
     inkscape:window-height="991"
     inkscape:window-x="-9"
     inkscape:window-y="-9"
     inkscape:window-maximized="1"
     inkscape:current-layer="layer1" /><defs
     id="defs1" /><g
     inkscape:label="Warstwa 1"
     inkscape:groupmode="layer"
     id="layer1"><path
       id="path9"
       style="color:#000000;fill:#ffffff;stroke-width:0.936409;-inkscape-stroke:none;paint-order:markers stroke fill"
       d="M 114.00931 36.70401 L 100.32117 36.941797 L 100.54758 49.990144 C 96.476983 50.898172 92.547695 52.556322 88.993466 54.971923 L 79.635944 45.933347 L 70.125206 55.780096 L 79.482728 64.818672 C 77.191876 68.454672 75.671041 72.439142 74.904847 76.538899 L 61.8565 76.765309 L 62.094288 90.453065 L 75.142255 90.226655 C 76.050268 94.297363 77.708757 98.226466 80.124413 101.78077 L 71.086216 111.13829 L 80.932587 120.64865 L 89.970784 111.29151 C 93.606917 113.58252 97.591441 115.1036 101.69139 115.86977 L 101.9178 128.91774 L 115.60518 128.67995 L 115.37914 115.63236 C 119.44984 114.72434 123.37932 113.06585 126.93364 110.6502 L 136.29078 119.68802 L 145.80152 109.84165 L 136.44438 100.80345 C 138.73525 97.167428 140.25612 93.182644 141.02226 89.082848 L 154.06985 88.856438 L 153.83244 75.168682 L 140.78485 75.395471 C 139.87679 71.324596 138.21811 67.395036 135.80231 63.840596 L 144.84051 54.483074 L 134.99414 44.972716 L 125.95594 54.330238 C 122.31993 52.039397 118.33549 50.518148 114.23572 49.751977 L 114.00931 36.70401 z M 107.63304 63.787123 C 112.47446 63.70317 117.34857 65.487671 121.14976 69.159146 C 128.75211 76.502094 128.9584 88.394538 121.61547 95.996886 C 114.27251 103.59924 102.37933 103.80631 94.776971 96.463359 C 87.174616 89.120411 86.968306 77.22684 94.311257 69.624481 C 97.982727 65.823305 102.79162 63.871075 107.63304 63.787123 z M 202.37558 65.488042 L 184.43079 71.010626 L 189.69472 88.116149 C 184.67691 90.861635 180.13099 94.541796 176.36725 99.077124 L 160.59819 90.729535 L 151.81409 107.3227 L 167.58315 115.67029 C 165.94846 121.33281 165.46086 127.16173 166.01155 132.85507 L 148.90565 138.11901 L 154.42748 156.06305 L 171.53338 150.79949 C 174.27888 155.81743 177.95931 160.36353 182.49473 164.12734 L 174.14752 179.89602 L 190.73993 188.67936 L 199.08752 172.91106 C 204.75026 174.54591 210.57909 175.03379 216.27268 174.48304 L 221.53586 191.58856 L 239.48028 186.06635 L 234.2171 168.96121 C 239.23504 166.21569 243.78113 162.53491 247.54495 157.99948 L 263.31363 166.34707 L 272.09735 149.75391 L 256.32867 141.40632 C 257.96337 135.74376 258.45136 129.91529 257.90065 124.22191 L 275.00541 118.95797 L 269.48396 101.01318 L 252.37882 106.27749 C 249.63322 101.25933 245.95237 96.713187 241.41671 92.949263 L 249.7643 77.180583 L 233.17151 68.396861 L 224.82393 84.165541 C 219.16141 82.530861 213.33286 82.043255 207.63952 82.593944 L 202.37558 65.488042 z M 211.66332 102.45848 C 215.85615 102.42504 220.13098 103.41371 224.13446 105.53303 C 236.94556 112.31487 241.7434 127.90574 234.96156 140.71685 C 228.17972 153.52796 212.58849 158.32617 199.77737 151.54433 C 186.96627 144.76249 182.16803 129.17088 188.94988 116.35976 C 193.61239 107.55212 202.4391 102.53207 211.66332 102.45848 z M 96.007246 138.91277 L 82.090805 144.58137 L 87.493926 157.84702 C 83.687248 160.3897 80.322521 163.64425 77.641867 167.52538 L 64.481643 161.9827 L 58.649215 175.8305 L 71.809439 181.37356 C 70.905605 186.00316 70.927925 190.68415 71.76848 195.18419 L 58.502446 200.58731 L 64.170282 214.50338 L 77.436316 209.10063 C 79.979022 212.90742 83.233833 216.27199 87.115059 218.95269 L 81.572375 232.11254 L 95.419794 237.94497 L 100.96248 224.78512 C 105.59227 225.68905 110.27363 225.66672 114.77387 224.82608 L 120.17661 238.09174 L 134.09267 232.4239 L 128.68993 219.15825 C 132.49672 216.61554 135.86165 213.36073 138.54237 209.4795 L 151.70221 215.02219 L 157.53464 201.17401 L 144.3748 195.6317 C 145.27864 191.00208 145.25637 186.32076 144.41576 181.82069 L 157.68103 176.41795 L 152.0132 162.50113 L 138.74792 167.90425 C 136.20511 164.09731 132.95022 160.73298 129.0688 158.05219 L 134.61148 144.89197 L 120.76368 139.05992 L 115.221 152.21976 C 110.5914 151.31595 105.91041 151.33821 101.41037 152.17881 L 96.007246 138.91277 z M 108.0377 167.63612 C 110.74516 167.64065 113.50568 168.17715 116.1786 169.30291 C 126.87028 173.80598 131.79471 185.89725 127.29165 196.58892 C 122.78858 207.2806 110.69731 212.20541 100.00564 207.70235 C 89.313964 203.19929 84.389144 191.10764 88.892207 180.41597 C 92.269504 172.39721 99.915296 167.62255 108.0377 167.63612 z "
       transform="matrix(1.3626089,0,0,1.3626089,-77.220498,-37.219676)" /></g></svg>
