<?xml version="1.0" encoding="UTF-8" standalone="no"?>
<!-- Created with Inkscape (http://www.inkscape.org/) -->

<svg
   width="300mm"
   height="300mm"
   viewBox="0 0 300 300"
   version="1.1"
   id="svg1"
   inkscape:version="1.3.2 (091e20e, 2023-11-25, custom)"
   sodipodi:docname="production.svg"
   xml:space="preserve"
   xmlns:inkscape="http://www.inkscape.org/namespaces/inkscape"
   xmlns:sodipodi="http://sodipodi.sourceforge.net/DTD/sodipodi-0.dtd"
   xmlns="http://www.w3.org/2000/svg"
   xmlns:svg="http://www.w3.org/2000/svg"><sodipodi:namedview
     id="namedview1"
     pagecolor="#696969"
     bordercolor="#000000"
     borderopacity="0.25"
     inkscape:showpageshadow="2"
     inkscape:pageopacity="0.0"
     inkscape:pagecheckerboard="0"
     inkscape:deskcolor="#d1d1d1"
     inkscape:document-units="mm"
     inkscape:zoom="0.25"
     inkscape:cx="92"
     inkscape:cy="702"
     inkscape:window-width="1920"
     inkscape:window-height="991"
     inkscape:window-x="-9"
     inkscape:window-y="-9"
     inkscape:window-maximized="1"
     inkscape:current-layer="layer1" /><defs
     id="defs1" /><g
     inkscape:label="Warstwa 1"
     inkscape:groupmode="layer"
     id="layer1"><path
       id="path9"
       style="color:#000000;fill:#ffffff;stroke-width:1.27596;-inkscape-stroke:none;paint-order:markers stroke fill"
       d="m 78.129714,12.793648 -18.651581,0.32401 0.308508,17.779794 c -5.546632,1.237287 -10.900715,3.496697 -15.743739,6.788217 L 31.29226,25.369624 18.332843,38.786892 31.083486,51.102936 c -3.121535,4.954446 -5.193838,10.383721 -6.237861,15.970085 L 7.065831,67.381529 7.3898431,86.032588 25.169119,85.72408 c 1.237267,5.546783 3.497138,10.900614 6.788733,15.74374 l -12.315528,12.75064 13.416753,12.9589 12.315528,-12.75012 c 4.954627,3.12175 10.383975,5.19438 15.970602,6.23837 l 0.308508,17.77928 18.650546,-0.32401 -0.308004,-17.77876 c 5.546772,-1.23728 10.901116,-3.49715 15.744264,-6.78874 l 12.750119,12.31502 12.95942,-13.41676 -12.75012,-12.31553 c 3.12156,-4.954471 5.19391,-10.384173 6.23786,-15.970591 l 17.77876,-0.308509 -0.32349,-18.651058 -17.77877,0.309025 c -1.23733,-5.547011 -3.49746,-10.901464 -6.78925,-15.744776 L 120.14058,37.019559 106.72383,24.06066 94.408298,36.811303 C 89.453839,33.689783 84.024605,31.616915 78.438222,30.572924 Z m -8.688362,36.903691 c 6.596962,-0.114396 13.238467,2.317181 18.418003,7.319966 10.35903,10.005565 10.640122,26.210315 0.63458,36.569342 C 78.488353,103.94568 62.2826,104.22784 51.923558,94.222267 41.564521,84.216701 41.283401,68.010417 51.288972,57.651374 56.291749,52.471858 62.84439,49.811732 69.441352,49.697339 Z m 129.097028,2.317687 -24.45173,7.525122 7.17268,23.308138 c -6.83732,3.741023 -13.03163,8.755644 -18.16013,14.935522 l -21.48706,-11.374499 -11.9693,22.609991 21.48707,11.3745 c -2.22745,7.7158 -2.89186,15.65834 -2.14148,23.41613 l -23.30865,7.1727 7.52409,24.4507 23.30865,-7.17217 c 3.74105,6.83749 8.75603,13.03205 14.93604,18.16065 l -11.37399,21.48654 22.60897,11.96826 11.3745,-21.48603 c 7.7161,2.22766 15.65852,2.89245 23.41665,2.142 l 7.17166,23.30813 24.45122,-7.52461 -7.17165,-23.30762 c 6.83749,-3.74107 13.03203,-8.75653 18.16065,-14.93655 l 21.48654,11.3745 11.96877,-22.60999 -21.48654,-11.3745 c 2.22746,-7.71585 2.8924,-15.65778 2.14199,-23.41563 l 23.3071,-7.17269 -7.52357,-24.45173 -23.30762,7.1732 C 262.93206,100.7573 257.9165,94.562685 251.73617,89.43393 L 263.11067,67.947385 240.50119,55.978609 229.1267,77.465152 c -7.7158,-2.227429 -15.65783,-2.891846 -23.41563,-2.141472 z m 12.65556,50.376244 c 5.71318,-0.0456 11.53811,1.30161 16.99328,4.18941 17.45652,9.241 23.9941,30.48525 14.75311,47.94179 -9.241,17.45653 -30.48575,23.99461 -47.94229,14.75362 -17.45652,-9.241 -23.99465,-30.48627 -14.75364,-47.94281 6.35318,-12.00137 18.38053,-18.84173 30.94954,-18.94201 z m -157.593999,49.67294 -18.962666,7.72409 7.362341,18.07589 c -5.187013,3.46468 -9.77182,7.89936 -13.424503,13.18782 l -17.932239,-7.55251 -7.9473181,18.86914 17.9322381,7.55302 c -1.231572,6.30834 -1.201159,12.68669 -0.05581,18.81849 l -18.0764158,7.36234 7.7230438,18.96216 18.076416,-7.36184 c 3.464714,5.18717 7.899748,9.77176 13.188341,13.42451 l -7.55251,17.93173 18.868616,7.94732 7.552513,-17.93173 c 6.308593,1.2317 12.687456,1.20128 18.819523,0.0558 l 7.361822,18.07591 18.962147,-7.72305 -7.361821,-18.07589 c 5.187161,-3.46472 9.772251,-7.89976 13.425021,-13.18835 l 17.93172,7.55251 7.94732,-18.86965 -17.93172,-7.552 c 1.23158,-6.30836 1.20124,-12.68717 0.0558,-18.81901 l 18.07538,-7.36182 -7.72304,-18.96318 -18.07539,7.36234 c -3.46485,-5.18737 -7.89999,-9.77164 -13.18885,-13.42451 l 7.5525,-17.93223 -18.86913,-7.9468 -7.552505,17.93171 c -6.308334,-1.23154 -12.686693,-1.2012 -18.818488,-0.0558 z m 16.392804,39.13869 c 3.689209,0.006 7.450718,0.73722 11.092863,2.27119 14.568578,6.13592 21.278652,22.61159 15.142741,37.18016 -6.135923,14.56857 -22.611596,21.27916 -37.18016,15.14325 -14.568573,-6.1359 -21.279177,-22.61209 -15.143263,-37.18066 4.601935,-10.92643 15.020159,-17.43243 26.087819,-17.41394 z" /></g></svg>
