<?xml version="1.0" encoding="UTF-8" standalone="no"?>
<!-- Created with Inkscape (http://www.inkscape.org/) -->

<svg
   width="300mm"
   height="300mm"
   viewBox="0 0 300 300"
   version="1.1"
   id="svg1"
   inkscape:version="1.3.2 (091e20e, 2023-11-25, custom)"
   sodipodi:docname="ranged.svg"
   xml:space="preserve"
   xmlns:inkscape="http://www.inkscape.org/namespaces/inkscape"
   xmlns:sodipodi="http://sodipodi.sourceforge.net/DTD/sodipodi-0.dtd"
   xmlns="http://www.w3.org/2000/svg"
   xmlns:svg="http://www.w3.org/2000/svg"><sodipodi:namedview
     id="namedview1"
     pagecolor="#696969"
     bordercolor="#000000"
     borderopacity="0.25"
     inkscape:showpageshadow="2"
     inkscape:pageopacity="0.0"
     inkscape:pagecheckerboard="0"
     inkscape:deskcolor="#d1d1d1"
     inkscape:document-units="mm"
     inkscape:zoom="0.5"
     inkscape:cx="591"
     inkscape:cy="699"
     inkscape:window-width="1920"
     inkscape:window-height="991"
     inkscape:window-x="-9"
     inkscape:window-y="-9"
     inkscape:window-maximized="1"
     inkscape:current-layer="layer1" /><defs
     id="defs1" /><g
     inkscape:label="Warstwa 1"
     inkscape:groupmode="layer"
     id="layer1"><path
       id="path11"
       style="color:#000000;fill:#ffffff;stroke-width:1.43872;stroke-linecap:square;-inkscape-stroke:none;paint-order:markers stroke fill"
       inkscape:label="path11"
       d="M 293.3313,7.7032598 181.17817,26.167569 214.75222,59.741608 201.06179,73.432037 C 188.32293,63.740137 173.66703,56.417859 157.71397,52.14325 146.92167,49.251454 135.94426,47.85512 125.0559,47.880883 97.093544,47.947083 69.744289,57.438368 47.572707,75.024571 L 34.612376,62.064238 8.4173663,76.562829 40.57954,108.72427 93.356162,161.50089 113.74386,141.1132 68.167085,95.536422 C 84.244832,83.673497 103.51106,77.128703 123.27006,76.685503 c 8.98135,-0.201467 18.06474,0.857985 26.99647,3.251236 10.99071,2.944948 21.15691,7.779994 30.19939,14.090423 l -82.967096,82.967088 -28.369677,-7.60133 -62.4604447,62.46415 52.1647437,10.64366 13.341731,49.79601 58.557933,-58.56015 -8.09575,-30.21277 83.292,-83.28976 c 5.53081,8.4453 9.79938,17.80944 12.49193,27.85817 7.65843,28.5816 1.65547,58.71361 -15.59968,82.09945 l -43.6073,-43.60803 -20.3468,20.34679 64.78084,64.78084 0.0141,-0.0141 16.96695,16.96695 14.4458,-26.24779 -11.69196,-11.69196 c 24.39702,-30.79791 33.14355,-71.59721 22.83226,-110.07956 -4.02347,-15.01578 -10.78399,-28.85388 -19.64051,-41.055665 l 14.59971,-14.599701 32.62983,32.003066 z" /></g></svg>
