<?xml version="1.0" encoding="UTF-8" standalone="no"?>
<!-- Created with Inkscape (http://www.inkscape.org/) -->

<svg
   width="300mm"
   height="300mm"
   viewBox="0 0 300 300"
   version="1.1"
   id="svg1"
   inkscape:version="1.3.2 (091e20e, 2023-11-25, custom)"
   sodipodi:docname="unlock.svg"
   xml:space="preserve"
   xmlns:inkscape="http://www.inkscape.org/namespaces/inkscape"
   xmlns:sodipodi="http://sodipodi.sourceforge.net/DTD/sodipodi-0.dtd"
   xmlns="http://www.w3.org/2000/svg"
   xmlns:svg="http://www.w3.org/2000/svg"><sodipodi:namedview
     id="namedview1"
     pagecolor="#696969"
     bordercolor="#000000"
     borderopacity="0.25"
     inkscape:showpageshadow="2"
     inkscape:pageopacity="0.0"
     inkscape:pagecheckerboard="0"
     inkscape:deskcolor="#d1d1d1"
     inkscape:document-units="mm"
     inkscape:zoom="0.20820367"
     inkscape:cx="136.8852"
     inkscape:cy="823.71268"
     inkscape:window-width="1920"
     inkscape:window-height="991"
     inkscape:window-x="-9"
     inkscape:window-y="-9"
     inkscape:window-maximized="1"
     inkscape:current-layer="layer1" /><defs
     id="defs1" /><g
     inkscape:label="Warstwa 1"
     inkscape:groupmode="layer"
     id="layer1"><path
       id="rect1"
       style="opacity:1;fill:#ffffff;stroke-width:42;stroke-linecap:square;stroke-miterlimit:6;stroke-dashoffset:38.7337;paint-order:fill markers stroke"
       d="M 46.1128,139.03776 V 279.778 H 253.8872 V 139.03776 Z M 150,180.30914 a 16.286852,16.286852 0 0 1 16.28686,16.28686 16.286852,16.286852 0 0 1 -9.32295,14.72262 V 232.2021 H 143.03556 V 211.3026 A 16.286852,16.286852 0 0 1 133.71314,196.596 16.286852,16.286852 0 0 1 150,180.30914 Z" /><path
       id="rect3"
       style="fill:#ffffff;stroke-width:37.1372;stroke-linecap:square;stroke-miterlimit:6;stroke-dashoffset:38.7337;paint-order:fill markers stroke"
       d="m 151.66758,21.814689 c -19.91137,0.248079 -39.76706,7.813244 -54.388411,21.403862 -12.661451,11.802546 -21.167773,27.710322 -24.927162,44.538366 -0.258184,1.009794 -0.540424,2.013581 -0.802018,3.022555 l 27.65051,7.40885 2.425691,-9.053194 c 7.51203,-28.035314 36.12925,-44.557841 64.16456,-37.045801 28.03531,7.512039 44.55783,36.129759 37.0458,64.165073 l -9.0594,33.80931 h 29.54239 c 3.36782,-12.71595 6.93845,-25.40011 9.28677,-38.35218 3.24445,-26.779772 -8.13707,-54.880075 -29.23077,-71.729474 -9.33358,-7.545768 -20.34255,-12.972746 -31.96963,-15.928744 -6.45776,-1.591184 -13.10121,-2.321316 -19.73833,-2.238623 z" /></g></svg>
