<?xml version="1.0" encoding="UTF-8" standalone="no"?>
<!-- Created with Inkscape (http://www.inkscape.org/) -->

<svg
   width="300mm"
   height="300mm"
   viewBox="0 0 300 300"
   version="1.1"
   id="svg1"
   xml:space="preserve"
   inkscape:version="1.3.2 (091e20e, 2023-11-25, custom)"
   sodipodi:docname="boomballer-ident-logo.svg"
   inkscape:export-filename="boomballer-ident-text.png"
   inkscape:export-xdpi="91.440002"
   inkscape:export-ydpi="91.440002"
   xmlns:inkscape="http://www.inkscape.org/namespaces/inkscape"
   xmlns:sodipodi="http://sodipodi.sourceforge.net/DTD/sodipodi-0.dtd"
   xmlns:xlink="http://www.w3.org/1999/xlink"
   xmlns="http://www.w3.org/2000/svg"
   xmlns:svg="http://www.w3.org/2000/svg"><sodipodi:namedview
     id="namedview1"
     pagecolor="#b5ffff"
     bordercolor="#000000"
     borderopacity="0.25"
     inkscape:showpageshadow="false"
     inkscape:pageopacity="0.0"
     inkscape:pagecheckerboard="0"
     inkscape:deskcolor="#404040"
     inkscape:document-units="mm"
     inkscape:zoom="0.5"
     inkscape:cx="618"
     inkscape:cy="697"
     inkscape:window-width="1920"
     inkscape:window-height="991"
     inkscape:window-x="-9"
     inkscape:window-y="-9"
     inkscape:window-maximized="1"
     inkscape:current-layer="layer1"
     showguides="true" /><defs
     id="defs1"><linearGradient
       id="linearGradient1"
       inkscape:collect="always"><stop
         style="stop-color:#2972c5;stop-opacity:1;"
         offset="0"
         id="stop1" /><stop
         style="stop-color:#2939c5;stop-opacity:1;"
         offset="1"
         id="stop2" /></linearGradient><linearGradient
       inkscape:collect="always"
       xlink:href="#linearGradient1"
       id="linearGradient2"
       x1="145.2375"
       y1="-8.75"
       x2="210.325"
       y2="327.27084"
       gradientUnits="userSpaceOnUse" /></defs><g
     inkscape:label="Warstwa 1"
     inkscape:groupmode="layer"
     id="layer1"><rect
       style="display:none;opacity:1;fill:url(#linearGradient2);fill-opacity:1;stroke-width:0.264583"
       id="rect2"
       width="309.03333"
       height="309.03333"
       x="-4.5166626"
       y="-4.5166626" /><g
       id="g2"
       transform="matrix(0.45785543,0,0,0.45785543,81.321738,98.026388)"
       style="display:none"><path
         id="path17"
         style="display:inline;opacity:1;fill:#ffffff;stroke:none;stroke-width:0.30061;stroke-linecap:square;stroke-linejoin:round;stroke-miterlimit:16.9"
         d="m 205.45798,167.71574 a 77.563577,77.563577 0 0 1 -49.67516,23.12141 v 12.05924 a 89.591328,89.591328 0 0 0 57.31837,-25.79276 77.563577,77.563577 0 0 0 -7.64321,-9.38789 z m -110.783283,0.0837 a 77.563577,77.563577 0 0 0 -7.551585,9.21677 89.591328,89.591328 0 0 0 57.094448,25.67624 v -12.0683 A 77.563577,77.563577 0 0 1 94.674697,167.79948 Z" /><path
         id="path15"
         style="display:inline;opacity:1;fill:#ffffff;stroke:none;stroke-width:0.30061;stroke-linecap:square;stroke-linejoin:round;stroke-miterlimit:16.9"
         d="m 155.78282,144.37767 v 6.15281 14.91444 11.15685 a 63.376999,63.376999 0 0 0 38.85996,-18.13861 77.563577,77.563577 0 0 0 -9.98261,-6.01202 52.274457,52.274457 0 0 1 -17.3127,10.35946 v -16.11114 a 37.47107,37.47107 0 0 0 0.42722,-0.28643 77.563577,77.563577 0 0 0 -11.99187,-2.03536 z m -11.56526,0.21361 a 77.563577,77.563577 0 0 0 -11.61077,1.96861 37.47107,37.47107 0 0 0 0.0455,0.0303 v 16.02618 a 52.274457,52.274457 0 0 1 -17.04993,-10.10519 77.563577,77.563577 0 0 0 -9.92678,5.96711 63.376999,63.376999 0 0 0 38.54197,17.90801 v -11.16656 -14.88531 z" /><path
         id="path13"
         style="display:inline;opacity:1;fill:#ffffff;stroke:none;stroke-width:0.30061;stroke-linecap:square;stroke-linejoin:round;stroke-miterlimit:16.9"
         d="M 98.057253,77.622852 A 63.376999,63.376999 0 0 0 87.12918,107.7327 h 11.128939 a 52.274457,52.274457 0 0 1 9.454041,-24.394578 89.591328,89.591328 0 0 1 -9.654907,-5.71527 z m 103.982367,0.13836 a 89.591328,89.591328 0 0 1 -9.64824,5.721339 52.274457,52.274457 0 0 1 9.35088,24.250149 H 212.8712 A 63.376999,63.376999 0 0 0 202.03962,77.761212 Z M 87.12918,119.29796 a 63.376999,63.376999 0 0 0 10.737524,29.83677 89.591328,89.591328 0 0 1 9.652486,-5.71345 52.274457,52.274457 0 0 1 -9.261071,-24.12332 z m 114.63311,0 a 52.274457,52.274457 0 0 1 -9.08327,24.03533 89.591328,89.591328 0 0 1 9.73623,5.77292 63.376999,63.376999 0 0 0 10.67138,-29.80825 z" /><path
         id="path12"
         style="display:inline;opacity:1;fill:#ffffff;stroke:none;stroke-width:0.30061;stroke-linecap:square;stroke-linejoin:round;stroke-miterlimit:16.9"
         d="m 121.71088,89.336183 a 37.47107,37.47107 0 0 0 -8.52982,18.396517 h 31.0365 V 94.12298 a 89.591328,89.591328 0 0 1 -22.50668,-4.786797 z m 56.72305,0.151104 a 89.591328,89.591328 0 0 1 -22.65111,4.839593 v 13.40582 h 31.0359 a 37.47107,37.47107 0 0 0 -8.38479,-18.245413 z m -65.25287,29.810673 a 37.47107,37.47107 0 0 0 8.25552,18.10949 89.591328,89.591328 0 0 1 22.78098,-4.88572 v -13.22377 z m 42.60176,0 v 13.02048 a 89.591328,89.591328 0 0 1 22.99884,4.96521 37.47107,37.47107 0 0 0 8.05284,-17.98569 z" /><path
         id="path5"
         style="display:inline;opacity:1;fill:#ffffff;stroke:none;stroke-width:0.30061;stroke-linecap:square;stroke-linejoin:round;stroke-miterlimit:16.9"
         d="m 221.0005,58.915627 a 89.591328,89.591328 0 0 1 -8.02067,9.384865 77.563577,77.563577 0 0 1 14.58371,45.214838 77.563577,77.563577 0 0 1 -14.40105,44.99031 89.591328,89.591328 0 0 1 7.9879,9.41703 89.591328,89.591328 0 0 0 18.44082,-54.40734 89.591328,89.591328 0 0 0 -18.59071,-54.599703 z m -141.800363,0.05886 a 89.591328,89.591328 0 0 0 -18.791576,54.540843 89.591328,89.591328 0 0 0 18.64472,54.34423 89.591328,89.591328 0 0 1 7.890811,-9.25379 77.563577,77.563577 0 0 1 -14.507854,-45.09044 77.563577,77.563577 0 0 1 14.660779,-45.34228 89.591328,89.591328 0 0 1 -7.89688,-9.198563 z" /><path
         id="path3"
         style="display:inline;opacity:1;fill:#ffffff;stroke:none;stroke-width:0.30061;stroke-linecap:square;stroke-linejoin:round;stroke-miterlimit:16.9"
         d="m 144.21756,50.644323 a 63.376999,63.376999 0 0 0 -38.30166,17.667699 77.563577,77.563577 0 0 0 9.9286,5.967718 52.274457,52.274457 0 0 1 16.8078,-9.866094 v 15.68028 a 77.563577,77.563577 0 0 0 11.56526,1.960718 V 76.696199 61.810886 Z m 11.56526,0 v 11.166563 14.885313 5.358445 a 77.563577,77.563577 0 0 0 11.56465,-1.960718 v -15.68028 a 52.274457,52.274457 0 0 1 16.80841,9.866094 77.563577,77.563577 0 0 0 9.9286,-5.967718 63.376999,63.376999 0 0 0 -38.30166,-17.667699 z" /><path
         id="path1"
         style="display:inline;opacity:1;fill:#ffffff;stroke:none;stroke-width:0.30061;stroke-linecap:square;stroke-linejoin:round;stroke-miterlimit:16.9"
         d="m 155.78282,24.134279 v 12.272236 a 77.563577,77.563577 0 0 1 49.35596,22.6056 77.563577,77.563577 0 0 0 7.70086,-9.333283 89.591328,89.591328 0 0 0 -57.05682,-25.544553 z m -11.56526,0.203293 a 89.591328,89.591328 0 0 0 -56.927566,25.509963 77.563577,77.563577 0 0 0 7.571611,9.16458 77.563577,77.563577 0 0 1 49.355955,-22.6056 z" /></g><g
       id="g33"
       transform="matrix(0.85155836,0,0,0.85155836,22.26625,-70.986631)"
       style="display:none"><text
         xml:space="preserve"
         style="font-size:33.3612px;line-height:0;font-family:Breximova;-inkscape-font-specification:Breximova;text-align:center;letter-spacing:0.79375px;text-anchor:middle;display:inline;fill:#ffffff;fill-opacity:1;stroke:none;stroke-width:0.174029;stroke-linecap:square;stroke-linejoin:round;stroke-miterlimit:16.9"
         x="153.58466"
         y="251.14937"
         id="text26"
         transform="scale(0.97306677,1.0276787)"><tspan
           sodipodi:role="line"
           id="tspan26"
           style="font-style:normal;font-variant:normal;font-weight:bold;font-stretch:normal;font-family:Poppins;-inkscape-font-specification:Poppins;letter-spacing:0.79375px;fill:#ffffff;fill-opacity:1;stroke-width:0.17403"
           x="153.98154"
           y="251.14937">BOOMBALLER</tspan></text><text
         xml:space="preserve"
         style="font-size:25.3259px;line-height:0;font-family:Breximova;-inkscape-font-specification:Breximova;text-align:center;letter-spacing:2.64583px;text-anchor:middle;display:inline;fill:#ffffff;fill-opacity:1;stroke:none;stroke-width:0.132113;stroke-linecap:square;stroke-linejoin:round;stroke-miterlimit:16.9"
         x="153.58867"
         y="277.66489"
         id="text32"
         transform="scale(0.97306677,1.0276787)"><tspan
           sodipodi:role="line"
           id="tspan32"
           style="font-style:normal;font-variant:normal;font-weight:bold;font-stretch:normal;font-family:Poppins;-inkscape-font-specification:Poppins;letter-spacing:2.64583px;fill:#ffffff;fill-opacity:1;stroke-width:0.132114"
           x="154.91159"
           y="277.66489">STUDIO</tspan></text></g><g
       id="g10"
       transform="matrix(0.45785543,0,0,0.45785543,81.321738,98.026388)"
       style="display:none"><path
         id="path25"
         style="display:none;opacity:1;fill:#ffffff;stroke:none;stroke-width:0.30061;stroke-linecap:square;stroke-linejoin:round;stroke-miterlimit:16.9"
         d="m 144.21807,24.337761 a 89.591328,89.591328 0 0 0 -56.928619,25.510033 77.563577,77.563577 0 0 0 7.572198,9.16474 77.563577,77.563577 0 0 1 49.356421,-22.605984 z m 0,26.306869 a 63.376999,63.376999 0 0 0 -38.3023,17.666956 77.563577,77.563577 0 0 0 9.92885,5.968368 52.274457,52.274457 0 0 1 16.80804,-9.866769 v 15.68051 a 77.563577,77.563577 0 0 0 11.56541,1.960487 V 76.696421 61.810489 Z M 79.200326,58.97416 A 89.591328,89.591328 0 0 0 60.408093,113.51565 89.591328,89.591328 0 0 0 79.0536,167.85963 89.591328,89.591328 0 0 1 86.94408,158.60573 77.563577,77.563577 0 0 1 72.436251,113.51565 77.563577,77.563577 0 0 1 87.097578,68.172761 89.591328,89.591328 0 0 1 79.200326,58.97416 Z M 98.056893,77.623053 A 63.376999,63.376999 0 0 0 87.129181,107.73239 H 98.257795 A 52.274457,52.274457 0 0 1 107.7126,83.338601 89.591328,89.591328 0 0 1 98.056893,77.623053 Z M 121.7114,89.336314 a 37.47107,37.47107 0 0 0 -8.53043,18.396076 h 31.0371 V 94.122972 A 89.591328,89.591328 0 0 1 121.7114,89.336314 Z M 87.129181,119.29779 a 63.376999,63.376999 0 0 0 10.736968,29.83733 89.591328,89.591328 0 0 1 9.653451,-5.71329 52.274457,52.274457 0 0 1 -9.261805,-24.12404 z m 26.051789,0 a 37.47107,37.47107 0 0 0 8.25617,18.10939 89.591328,89.591328 0 0 1 22.78093,-4.88598 v -13.22341 z m 31.0371,25.29333 a 77.563577,77.563577 0 0 0 -11.61168,1.96839 37.47107,37.47107 0 0 0 0.0463,0.0305 v 16.02589 a 52.274457,52.274457 0 0 1 -17.05071,-10.10492 77.563577,77.563577 0 0 0 -9.92658,5.96724 63.376999,63.376999 0 0 0 38.5427,17.90849 v -11.16699 -14.8848 z m -49.543779,23.20869 a 77.563577,77.563577 0 0 0 -7.550753,9.21666 89.591328,89.591328 0 0 0 57.094532,25.67595 V 190.62363 A 77.563577,77.563577 0 0 1 94.674291,167.79981 Z" /><path
         id="path2"
         style="display:inline;opacity:1;fill:#ffffff;stroke:none;stroke-width:0.30061;stroke-linecap:square;stroke-linejoin:round;stroke-miterlimit:16.9"
         d="M 155.78234,24.134601 V 36.40655 a 77.563577,77.563577 0 0 1 49.35642,22.605984 77.563577,77.563577 0 0 0 7.70087,-9.33404 89.591328,89.591328 0 0 0 -57.05729,-25.543893 z m 0,26.510029 v 11.165859 14.885932 5.357761 a 77.563577,77.563577 0 0 0 11.56541,-1.960487 v -15.68051 a 52.274457,52.274457 0 0 1 16.80804,9.866769 77.563577,77.563577 0 0 0 9.92885,-5.968368 63.376999,63.376999 0 0 0 -38.3023,-17.666956 z m 65.21865,8.270839 a 89.591328,89.591328 0 0 1 -8.02141,9.38483 77.563577,77.563577 0 0 1 14.58345,45.215351 77.563577,77.563577 0 0 1 -14.40061,44.98963 89.591328,89.591328 0 0 1 7.98755,9.41756 89.591328,89.591328 0 0 0 18.44122,-54.40719 89.591328,89.591328 0 0 0 -18.5902,-54.600181 z M 202.03945,77.76075 a 89.591328,89.591328 0 0 1 -9.6478,5.722319 52.274457,52.274457 0 0 1 9.35097,24.249321 h 11.12861 A 63.376999,63.376999 0 0 0 202.03945,77.76075 Z m -23.60598,11.726805 a 89.591328,89.591328 0 0 1 -22.65113,4.839705 v 13.40513 h 31.03597 a 37.47107,37.47107 0 0 0 -8.38484,-18.244835 z m -22.65113,29.810235 v 13.02025 a 89.591328,89.591328 0 0 1 22.99876,4.96612 37.47107,37.47107 0 0 0 8.05301,-17.98637 z m 45.97946,0 a 52.274457,52.274457 0 0 1 -9.08235,24.036 89.591328,89.591328 0 0 1 9.73585,5.77198 63.376999,63.376999 0 0 0 10.6715,-29.80798 z m -45.97946,25.08002 v 6.15234 14.91527 11.15683 a 63.376999,63.376999 0 0 0 38.86099,-18.13873 77.563577,77.563577 0 0 0 -9.98302,-6.01239 52.274457,52.274457 0 0 1 -17.31256,10.35999 v -16.11166 a 37.47107,37.47107 0 0 0 0.42663,-0.28668 77.563577,77.563577 0 0 0 -11.99204,-2.03497 z m 49.67583,23.33848 a 77.563577,77.563577 0 0 1 -49.67583,23.12066 v 12.05976 a 89.591328,89.591328 0 0 0 57.31914,-25.79333 77.563577,77.563577 0 0 0 -7.64331,-9.38709 z" /></g><g
       id="g17"
       transform="matrix(3.4438788,0,0,3.4438788,-366.58182,-366.58199)"><g
         id="g11"
         transform="matrix(0.45785543,0,0,0.45785543,81.321738,98.026388)"
         style="display:inline"><path
           id="path4"
           style="display:inline;opacity:1;fill:#ffffff;stroke:none;stroke-width:0.30061;stroke-linecap:square;stroke-linejoin:round;stroke-miterlimit:16.9"
           d="m 205.45798,167.71574 a 77.563577,77.563577 0 0 1 -49.67516,23.12141 v 12.05924 a 89.591328,89.591328 0 0 0 57.31837,-25.79276 77.563577,77.563577 0 0 0 -7.64321,-9.38789 z m -110.783283,0.0837 a 77.563577,77.563577 0 0 0 -7.551585,9.21677 89.591328,89.591328 0 0 0 57.094448,25.67624 v -12.0683 A 77.563577,77.563577 0 0 1 94.674697,167.79948 Z" /><path
           id="path6"
           style="display:inline;opacity:1;fill:#ffffff;stroke:none;stroke-width:0.30061;stroke-linecap:square;stroke-linejoin:round;stroke-miterlimit:16.9"
           d="m 155.78282,144.37767 v 6.15281 14.91444 11.15685 a 63.376999,63.376999 0 0 0 38.85996,-18.13861 77.563577,77.563577 0 0 0 -9.98261,-6.01202 52.274457,52.274457 0 0 1 -17.3127,10.35946 v -16.11114 a 37.47107,37.47107 0 0 0 0.42722,-0.28643 77.563577,77.563577 0 0 0 -11.99187,-2.03536 z m -11.56526,0.21361 a 77.563577,77.563577 0 0 0 -11.61077,1.96861 37.47107,37.47107 0 0 0 0.0455,0.0303 v 16.02618 a 52.274457,52.274457 0 0 1 -17.04993,-10.10519 77.563577,77.563577 0 0 0 -9.92678,5.96711 63.376999,63.376999 0 0 0 38.54197,17.90801 v -11.16656 -14.88531 z" /><path
           id="path7"
           style="display:inline;opacity:1;fill:#ffffff;stroke:none;stroke-width:0.30061;stroke-linecap:square;stroke-linejoin:round;stroke-miterlimit:16.9"
           d="M 98.057253,77.622852 A 63.376999,63.376999 0 0 0 87.12918,107.7327 h 11.128939 a 52.274457,52.274457 0 0 1 9.454041,-24.394578 89.591328,89.591328 0 0 1 -9.654907,-5.71527 z m 103.982367,0.13836 a 89.591328,89.591328 0 0 1 -9.64824,5.721339 52.274457,52.274457 0 0 1 9.35088,24.250149 H 212.8712 A 63.376999,63.376999 0 0 0 202.03962,77.761212 Z M 87.12918,119.29796 a 63.376999,63.376999 0 0 0 10.737524,29.83677 89.591328,89.591328 0 0 1 9.652486,-5.71345 52.274457,52.274457 0 0 1 -9.261071,-24.12332 z m 114.63311,0 a 52.274457,52.274457 0 0 1 -9.08327,24.03533 89.591328,89.591328 0 0 1 9.73623,5.77292 63.376999,63.376999 0 0 0 10.67138,-29.80825 z" /><path
           id="path8"
           style="display:inline;opacity:1;fill:#ffffff;stroke:none;stroke-width:0.30061;stroke-linecap:square;stroke-linejoin:round;stroke-miterlimit:16.9"
           d="m 121.71088,89.336183 a 37.47107,37.47107 0 0 0 -8.52982,18.396517 h 31.0365 V 94.12298 a 89.591328,89.591328 0 0 1 -22.50668,-4.786797 z m 56.72305,0.151104 a 89.591328,89.591328 0 0 1 -22.65111,4.839593 v 13.40582 h 31.0359 a 37.47107,37.47107 0 0 0 -8.38479,-18.245413 z m -65.25287,29.810673 a 37.47107,37.47107 0 0 0 8.25552,18.10949 89.591328,89.591328 0 0 1 22.78098,-4.88572 v -13.22377 z m 42.60176,0 v 13.02048 a 89.591328,89.591328 0 0 1 22.99884,4.96521 37.47107,37.47107 0 0 0 8.05284,-17.98569 z" /><path
           id="path9"
           style="display:inline;opacity:1;fill:#ffffff;stroke:none;stroke-width:0.30061;stroke-linecap:square;stroke-linejoin:round;stroke-miterlimit:16.9"
           d="m 221.0005,58.915627 a 89.591328,89.591328 0 0 1 -8.02067,9.384865 77.563577,77.563577 0 0 1 14.58371,45.214838 77.563577,77.563577 0 0 1 -14.40105,44.99031 89.591328,89.591328 0 0 1 7.9879,9.41703 89.591328,89.591328 0 0 0 18.44082,-54.40734 89.591328,89.591328 0 0 0 -18.59071,-54.599703 z m -141.800363,0.05886 a 89.591328,89.591328 0 0 0 -18.791576,54.540843 89.591328,89.591328 0 0 0 18.64472,54.34423 89.591328,89.591328 0 0 1 7.890811,-9.25379 77.563577,77.563577 0 0 1 -14.507854,-45.09044 77.563577,77.563577 0 0 1 14.660779,-45.34228 89.591328,89.591328 0 0 1 -7.89688,-9.198563 z" /><path
           id="path10"
           style="display:inline;opacity:1;fill:#ffffff;stroke:none;stroke-width:0.30061;stroke-linecap:square;stroke-linejoin:round;stroke-miterlimit:16.9"
           d="m 144.21756,50.644323 a 63.376999,63.376999 0 0 0 -38.30166,17.667699 77.563577,77.563577 0 0 0 9.9286,5.967718 52.274457,52.274457 0 0 1 16.8078,-9.866094 v 15.68028 a 77.563577,77.563577 0 0 0 11.56526,1.960718 V 76.696199 61.810886 Z m 11.56526,0 v 11.166563 14.885313 5.358445 a 77.563577,77.563577 0 0 0 11.56465,-1.960718 v -15.68028 a 52.274457,52.274457 0 0 1 16.80841,9.866094 77.563577,77.563577 0 0 0 9.9286,-5.967718 63.376999,63.376999 0 0 0 -38.30166,-17.667699 z" /><path
           id="path11"
           style="display:inline;opacity:1;fill:#ffffff;stroke:none;stroke-width:0.30061;stroke-linecap:square;stroke-linejoin:round;stroke-miterlimit:16.9"
           d="m 155.78282,24.134279 v 12.272236 a 77.563577,77.563577 0 0 1 49.35596,22.6056 77.563577,77.563577 0 0 0 7.70086,-9.333283 89.591328,89.591328 0 0 0 -57.05682,-25.544553 z m -11.56526,0.203293 a 89.591328,89.591328 0 0 0 -56.927566,25.509963 77.563577,77.563577 0 0 0 7.571611,9.16458 77.563577,77.563577 0 0 1 49.355955,-22.6056 z" /></g><g
         id="g16"
         transform="matrix(0.45785543,0,0,0.45785543,81.321738,98.026388)"
         style="display:inline"><path
           id="path14"
           style="display:none;opacity:1;fill:#ffffff;stroke:none;stroke-width:0.30061;stroke-linecap:square;stroke-linejoin:round;stroke-miterlimit:16.9"
           d="m 144.21807,24.337761 a 89.591328,89.591328 0 0 0 -56.928619,25.510033 77.563577,77.563577 0 0 0 7.572198,9.16474 77.563577,77.563577 0 0 1 49.356421,-22.605984 z m 0,26.306869 a 63.376999,63.376999 0 0 0 -38.3023,17.666956 77.563577,77.563577 0 0 0 9.92885,5.968368 52.274457,52.274457 0 0 1 16.80804,-9.866769 v 15.68051 a 77.563577,77.563577 0 0 0 11.56541,1.960487 V 76.696421 61.810489 Z M 79.200326,58.97416 A 89.591328,89.591328 0 0 0 60.408093,113.51565 89.591328,89.591328 0 0 0 79.0536,167.85963 89.591328,89.591328 0 0 1 86.94408,158.60573 77.563577,77.563577 0 0 1 72.436251,113.51565 77.563577,77.563577 0 0 1 87.097578,68.172761 89.591328,89.591328 0 0 1 79.200326,58.97416 Z M 98.056893,77.623053 A 63.376999,63.376999 0 0 0 87.129181,107.73239 H 98.257795 A 52.274457,52.274457 0 0 1 107.7126,83.338601 89.591328,89.591328 0 0 1 98.056893,77.623053 Z M 121.7114,89.336314 a 37.47107,37.47107 0 0 0 -8.53043,18.396076 h 31.0371 V 94.122972 A 89.591328,89.591328 0 0 1 121.7114,89.336314 Z M 87.129181,119.29779 a 63.376999,63.376999 0 0 0 10.736968,29.83733 89.591328,89.591328 0 0 1 9.653451,-5.71329 52.274457,52.274457 0 0 1 -9.261805,-24.12404 z m 26.051789,0 a 37.47107,37.47107 0 0 0 8.25617,18.10939 89.591328,89.591328 0 0 1 22.78093,-4.88598 v -13.22341 z m 31.0371,25.29333 a 77.563577,77.563577 0 0 0 -11.61168,1.96839 37.47107,37.47107 0 0 0 0.0463,0.0305 v 16.02589 a 52.274457,52.274457 0 0 1 -17.05071,-10.10492 77.563577,77.563577 0 0 0 -9.92658,5.96724 63.376999,63.376999 0 0 0 38.5427,17.90849 v -11.16699 -14.8848 z m -49.543779,23.20869 a 77.563577,77.563577 0 0 0 -7.550753,9.21666 89.591328,89.591328 0 0 0 57.094532,25.67595 V 190.62363 A 77.563577,77.563577 0 0 1 94.674291,167.79981 Z" /><path
           id="path16"
           style="display:inline;opacity:1;fill:#ffffff;stroke:none;stroke-width:0.30061;stroke-linecap:square;stroke-linejoin:round;stroke-miterlimit:16.9"
           d="M 155.78234,24.134601 V 36.40655 a 77.563577,77.563577 0 0 1 49.35642,22.605984 77.563577,77.563577 0 0 0 7.70087,-9.33404 89.591328,89.591328 0 0 0 -57.05729,-25.543893 z m 0,26.510029 v 11.165859 14.885932 5.357761 a 77.563577,77.563577 0 0 0 11.56541,-1.960487 v -15.68051 a 52.274457,52.274457 0 0 1 16.80804,9.866769 77.563577,77.563577 0 0 0 9.92885,-5.968368 63.376999,63.376999 0 0 0 -38.3023,-17.666956 z m 65.21865,8.270839 a 89.591328,89.591328 0 0 1 -8.02141,9.38483 77.563577,77.563577 0 0 1 14.58345,45.215351 77.563577,77.563577 0 0 1 -14.40061,44.98963 89.591328,89.591328 0 0 1 7.98755,9.41756 89.591328,89.591328 0 0 0 18.44122,-54.40719 89.591328,89.591328 0 0 0 -18.5902,-54.600181 z M 202.03945,77.76075 a 89.591328,89.591328 0 0 1 -9.6478,5.722319 52.274457,52.274457 0 0 1 9.35097,24.249321 h 11.12861 A 63.376999,63.376999 0 0 0 202.03945,77.76075 Z m -23.60598,11.726805 a 89.591328,89.591328 0 0 1 -22.65113,4.839705 v 13.40513 h 31.03597 a 37.47107,37.47107 0 0 0 -8.38484,-18.244835 z m -22.65113,29.810235 v 13.02025 a 89.591328,89.591328 0 0 1 22.99876,4.96612 37.47107,37.47107 0 0 0 8.05301,-17.98637 z m 45.97946,0 a 52.274457,52.274457 0 0 1 -9.08235,24.036 89.591328,89.591328 0 0 1 9.73585,5.77198 63.376999,63.376999 0 0 0 10.6715,-29.80798 z m -45.97946,25.08002 v 6.15234 14.91527 11.15683 a 63.376999,63.376999 0 0 0 38.86099,-18.13873 77.563577,77.563577 0 0 0 -9.98302,-6.01239 52.274457,52.274457 0 0 1 -17.31256,10.35999 v -16.11166 a 37.47107,37.47107 0 0 0 0.42663,-0.28668 77.563577,77.563577 0 0 0 -11.99204,-2.03497 z m 49.67583,23.33848 a 77.563577,77.563577 0 0 1 -49.67583,23.12066 v 12.05976 a 89.591328,89.591328 0 0 0 57.31914,-25.79333 77.563577,77.563577 0 0 0 -7.64331,-9.38709 z" /></g></g></g></svg>
