<?xml version="1.0" encoding="UTF-8" standalone="no"?>
<!-- Created with Inkscape (http://www.inkscape.org/) -->

<svg
   width="300mm"
   height="300mm"
   viewBox="0 0 300 300"
   version="1.1"
   id="svg1"
   xml:space="preserve"
   inkscape:version="1.3.2 (091e20e, 2023-11-25, custom)"
   sodipodi:docname="HoB-logo.svg"
   xmlns:inkscape="http://www.inkscape.org/namespaces/inkscape"
   xmlns:sodipodi="http://sodipodi.sourceforge.net/DTD/sodipodi-0.dtd"
   xmlns:xlink="http://www.w3.org/1999/xlink"
   xmlns="http://www.w3.org/2000/svg"
   xmlns:svg="http://www.w3.org/2000/svg"><sodipodi:namedview
     id="namedview1"
     pagecolor="#ffffff"
     bordercolor="#000000"
     borderopacity="0.25"
     inkscape:showpageshadow="false"
     inkscape:pageopacity="0.0"
     inkscape:pagecheckerboard="0"
     inkscape:deskcolor="#404040"
     inkscape:document-units="mm"
     inkscape:zoom="0.5"
     inkscape:cx="439"
     inkscape:cy="577"
     inkscape:window-width="1920"
     inkscape:window-height="991"
     inkscape:window-x="-9"
     inkscape:window-y="-9"
     inkscape:window-maximized="1"
     inkscape:current-layer="layer1"
     showguides="true" /><defs
     id="defs1"><linearGradient
       id="linearGradient33"
       inkscape:collect="always"><stop
         style="stop-color:#0042af;stop-opacity:1;"
         offset="0.35961539"
         id="stop33" /><stop
         style="stop-color:#2577b3;stop-opacity:0;"
         offset="1"
         id="stop34" /></linearGradient><linearGradient
       id="linearGradient30"
       inkscape:collect="always"><stop
         style="stop-color:#5bceff;stop-opacity:1;"
         offset="0"
         id="stop30" /><stop
         style="stop-color:#1966b7;stop-opacity:1;"
         offset="1"
         id="stop31" /></linearGradient><linearGradient
       id="linearGradient28"
       inkscape:collect="always"><stop
         style="stop-color:#185190;stop-opacity:1;"
         offset="0"
         id="stop29" /><stop
         style="stop-color:#002d5e;stop-opacity:1;"
         offset="1"
         id="stop28" /></linearGradient><linearGradient
       id="linearGradient25"
       inkscape:collect="always"><stop
         style="stop-color:#1a78ab;stop-opacity:1;"
         offset="0"
         id="stop26" /><stop
         style="stop-color:#64c5ff;stop-opacity:1;"
         offset="1"
         id="stop27" /></linearGradient><linearGradient
       id="linearGradient24"
       inkscape:collect="always"><stop
         style="stop-color:#2d2184;stop-opacity:1;"
         offset="0.28653845"
         id="stop25" /><stop
         style="stop-color:#2485d7;stop-opacity:1;"
         offset="0.79423082"
         id="stop36" /><stop
         style="stop-color:#248edf;stop-opacity:1;"
         offset="1"
         id="stop24" /></linearGradient><mask
       maskUnits="userSpaceOnUse"
       id="mask12"><path
         id="path13"
         style="display:inline;fill:#ffffff;stroke-width:13.5377;stroke-linecap:square;stroke-linejoin:round;stroke-miterlimit:13.7;paint-order:markers stroke fill"
         d="M 211.25105,150 A 61.251044,61.251044 0 0 1 150,211.25105 61.251044,61.251044 0 0 1 88.748955,150 61.251044,61.251044 0 0 1 150,88.748955 61.251044,61.251044 0 0 1 211.25105,150 Z" /></mask><mask
       maskUnits="userSpaceOnUse"
       id="mask18"><path
         id="path19"
         style="color:#000000;fill:#ffffff;stroke-width:1;stroke-linecap:round;stroke-linejoin:round;stroke-miterlimit:13.7;stroke-dashoffset:150.632;-inkscape-stroke:none;paint-order:markers stroke fill"
         d="m 127.24598,122.88035 a 13.030729,15.742708 0 0 0 -13.03073,15.74271 13.030729,15.742708 0 0 0 13.03073,15.74271 13.030729,15.742708 0 0 0 13.03073,-15.74271 13.030729,15.742708 0 0 0 -13.03073,-15.74271 z m 45.50833,0 a 13.030729,15.742708 0 0 0 -13.03073,15.74271 13.030729,15.742708 0 0 0 13.03073,15.74271 13.030729,15.742708 0 0 0 13.03073,-15.74271 13.030729,15.742708 0 0 0 -13.03073,-15.74271 z"
         inkscape:label="top" /></mask><mask
       maskUnits="userSpaceOnUse"
       id="mask23"><path
         style="display:inline;fill:#ffffff;fill-opacity:1;stroke:none;stroke-width:10.781;stroke-linecap:round;stroke-linejoin:round;stroke-miterlimit:13.7;stroke-dasharray:none;stroke-dashoffset:150.632;stroke-opacity:1;paint-order:markers stroke fill"
         d="m 62.70625,99.747914 87.12949,-50.304232 87.4961,50.515896 V 200.025 l -87.48186,50.50767 -86.549082,-49.96913 z"
         id="path23" /></mask><radialGradient
       inkscape:collect="always"
       xlink:href="#linearGradient24"
       id="radialGradient25"
       cx="150.01904"
       cy="149.98817"
       fx="150.01904"
       fy="149.98817"
       r="87.312795"
       gradientTransform="matrix(-0.95710285,0.55258356,-0.55350128,-0.95869234,376.62135,210.88264)"
       gradientUnits="userSpaceOnUse" /><linearGradient
       inkscape:collect="always"
       xlink:href="#linearGradient25"
       id="linearGradient27"
       x1="177.51666"
       y1="217.26294"
       x2="125.3494"
       y2="86.300865"
       gradientUnits="userSpaceOnUse" /><linearGradient
       inkscape:collect="always"
       xlink:href="#linearGradient28"
       id="linearGradient29"
       x1="115.68715"
       y1="50.468731"
       x2="190.67365"
       y2="272.35587"
       gradientUnits="userSpaceOnUse" /><linearGradient
       inkscape:collect="always"
       xlink:href="#linearGradient30"
       id="linearGradient31"
       x1="94.801773"
       y1="-51.677017"
       x2="173.683"
       y2="331.77878"
       gradientUnits="userSpaceOnUse" /><radialGradient
       inkscape:collect="always"
       xlink:href="#linearGradient33"
       id="radialGradient34"
       cx="150"
       cy="150"
       fx="150"
       fy="150"
       r="148.16667"
       gradientUnits="userSpaceOnUse"
       gradientTransform="matrix(0.89530103,0,0,0.88571429,15.704846,17.142856)" /><filter
       inkscape:collect="always"
       style="color-interpolation-filters:sRGB"
       id="filter35"
       x="-0.045784142"
       y="-0.045784142"
       width="1.0915683"
       height="1.0915683"><feGaussianBlur
         inkscape:collect="always"
         stdDeviation="5.65307"
         id="feGaussianBlur35" /></filter><linearGradient
       inkscape:collect="always"
       xlink:href="#linearGradient28"
       id="linearGradient36"
       gradientUnits="userSpaceOnUse"
       x1="115.68715"
       y1="50.468731"
       x2="190.67365"
       y2="272.35587" /><linearGradient
       inkscape:collect="always"
       xlink:href="#linearGradient28"
       id="linearGradient37"
       gradientUnits="userSpaceOnUse"
       x1="115.68715"
       y1="50.468731"
       x2="190.67365"
       y2="272.35587" /><linearGradient
       inkscape:collect="always"
       xlink:href="#linearGradient25"
       id="linearGradient38"
       gradientUnits="userSpaceOnUse"
       x1="177.51666"
       y1="217.26294"
       x2="125.3494"
       y2="86.300865" /><linearGradient
       inkscape:collect="always"
       xlink:href="#linearGradient25"
       id="linearGradient39"
       gradientUnits="userSpaceOnUse"
       x1="177.51666"
       y1="217.26294"
       x2="125.3494"
       y2="86.300865" /><linearGradient
       inkscape:collect="always"
       xlink:href="#linearGradient25"
       id="linearGradient40"
       gradientUnits="userSpaceOnUse"
       x1="177.51666"
       y1="217.26294"
       x2="125.3494"
       y2="86.300865" /></defs><g
     inkscape:label="Warstwa 1"
     inkscape:groupmode="layer"
     id="layer1"><rect
       style="opacity:1;fill:url(#linearGradient31);stroke-width:0.264583;fill-opacity:1"
       id="rect2"
       width="309.03333"
       height="309.03333"
       x="-4.5166626"
       y="-4.5166626" /><g
       id="g36"
       transform="matrix(1.1995818,0,0,1.1995818,-29.937266,-29.937266)"><circle
         style="display:inline;opacity:0.45;mix-blend-mode:normal;fill:url(#radialGradient34);fill-opacity:1;stroke:none;stroke-width:10.781;stroke-linecap:round;stroke-linejoin:round;stroke-miterlimit:13.7;stroke-dasharray:none;stroke-dashoffset:150.632;stroke-opacity:1;paint-order:markers stroke fill;filter:url(#filter35)"
         id="path31"
         cx="150"
         cy="150"
         r="148.16667" /><path
         id="path8"
         style="color:#000000;display:inline;fill:#ffffff;stroke-width:1.25915;stroke-linecap:round;stroke-linejoin:round;stroke-miterlimit:13.7;-inkscape-stroke:none;paint-order:markers stroke fill"
         d="m 150.00103,42.656393 a 5.3537149,5.3537149 0 0 0 -2.67575,0.716408 L 58.99816,94.368666 a 5.3537149,5.3537149 0 0 0 -2.678321,4.635615 V 200.9955 a 5.3537149,5.3537149 0 0 0 2.678321,4.63561 l 88.32712,50.99587 a 5.3537149,5.3537149 0 0 0 5.35151,0 l 88.32762,-50.99587 a 5.3537149,5.3537149 0 0 0 2.67575,-4.63561 V 99.004281 a 5.3537149,5.3537149 0 0 0 -2.67575,-4.635615 L 152.67679,43.372801 a 5.3537149,5.3537149 0 0 0 -2.67576,-0.716408 z m 0,17.479135 77.82423,44.931032 v 89.86462 L 150.00103,239.8622 72.177304,194.93118 v -89.86462 z"
         inkscape:label="outline" /><g
         id="g21"
         inkscape:label="hex-bg"
         mask="url(#mask23)"
         transform="translate(8.8690292e-4,-0.00103232)"><path
           style="display:none;opacity:1;fill:url(#radialGradient25);fill-opacity:1;stroke:none;stroke-width:10.781;stroke-linecap:round;stroke-linejoin:round;stroke-miterlimit:13.7;stroke-dasharray:none;stroke-dashoffset:150.632;stroke-opacity:1;paint-order:markers stroke fill"
           d="m 62.706249,99.747915 87.129491,-50.304233 87.4961,50.515895 V 200.025 l -87.48186,50.50767 -86.549082,-49.96913 z"
           id="path22" /><path
           id="path4"
           style="color:#000000;display:inline;fill:#f5ffff;fill-opacity:1;stroke-width:1.25979;stroke-linecap:round;stroke-linejoin:round;stroke-miterlimit:13.7;stroke-dasharray:5.77109, 11.5422;stroke-dashoffset:50.2085;-inkscape-stroke:none;paint-order:markers stroke fill"
           d="m 149.72264,23.24561 a 2.8855461,2.8855461 0 0 0 -2.88561,2.886128 v 5.770191 a 2.8855461,2.8855461 0 0 0 2.88561,2.885612 2.8855461,2.8855461 0 0 0 2.88407,-2.885612 v -5.770191 a 2.8855461,2.8855461 0 0 0 -2.88407,-2.886128 z m 0,17.314705 a 2.8855461,2.8855461 0 0 0 -2.88561,2.884062 V 43.6547 L 58.997432,94.36995 a 5.3537149,5.3537149 0 0 0 -0.08062,0.08062 l -0.213423,-0.12299 a 2.8855461,2.8855461 0 0 0 -2.190048,-0.287838 2.8855461,2.8855461 0 0 0 -1.751831,1.345654 2.8855461,2.8855461 0 0 0 1.055233,3.941879 l 0.502295,0.289904 V 200.80635 l -0.502295,0.2899 a 2.8855461,2.8855461 0 0 0 -1.055233,3.9393 2.8855461,2.8855461 0 0 0 3.941879,1.05781 l 0.546736,-0.31574 87.586895,50.56952 v 0.62942 a 2.8855461,2.8855461 0 0 0 2.88562,2.88406 2.8855461,2.8855461 0 0 0 2.88407,-2.88406 v -0.32969 a 5.3537149,5.3537149 0 0 0 0.0692,-0.0186 l 87.79619,-50.68993 0.2682,0.15503 a 2.8855461,2.8855461 0 0 0 3.94137,-1.05781 2.8855461,2.8855461 0 0 0 -1.03405,-3.92173 5.3537149,5.3537149 0 0 0 0.0315,-0.1173 V 99.284379 a 2.8855461,2.8855461 0 0 0 1.00253,-3.898987 2.8855461,2.8855461 0 0 0 -1.75184,-1.345654 2.8855461,2.8855461 0 0 0 -2.03501,0.267684 L 152.67595,43.37358 a 5.3537149,5.3537149 0 0 0 -0.1111,-0.02946 2.8855461,2.8855461 0 0 0 -2.84221,-2.783809 z m 2.88407,21.080884 72.37387,41.784531 -4.2323,2.44429 a 2.8855461,2.8855461 0 0 0 -1.05575,3.94188 2.8855461,2.8855461 0 0 0 3.94188,1.05523 l 4.18993,-2.41794 v 83.52204 l -4.18993,-2.41743 a 2.8855461,2.8855461 0 0 0 -2.18953,-0.28887 2.8855461,2.8855461 0 0 0 -1.75235,1.34411 2.8855461,2.8855461 0 0 0 1.05575,3.94188 l 3.86798,2.23345 -72.00955,41.57421 v -4.4664 a 2.8855461,2.8855461 0 0 0 -2.88407,-2.88664 2.8855461,2.8855461 0 0 0 -2.88561,2.88664 v 4.14497 l -71.73257,-41.41453 3.589961,-2.07274 a 2.8855461,2.8855461 0 0 0 1.056267,-3.94188 2.8855461,2.8855461 0 0 0 -1.751831,-1.34565 2.8855461,2.8855461 0 0 0 -2.190048,0.29042 l -3.632336,2.09548 v -82.87711 l 3.632336,2.09599 a 2.8855461,2.8855461 0 0 0 3.941879,-1.05523 2.8855461,2.8855461 0 0 0 -1.056267,-3.94188 l -3.953247,-2.28306 72.095856,-41.624334 v 4.56613 a 2.8855461,2.8855461 0 0 0 2.88561,2.886128 2.8855461,2.8855461 0 0 0 2.88407,-2.886128 z m -2.88407,13.543876 a 2.8855461,2.8855461 0 0 0 -2.88561,2.886129 v 5.772257 a 2.8855461,2.8855461 0 0 0 2.88561,2.883545 2.8855461,2.8855461 0 0 0 2.88407,-2.883545 v -5.772257 a 2.8855461,2.8855461 0 0 0 -2.88407,-2.886129 z M 41.518913,85.383419 a 2.8855461,2.8855461 0 0 0 -1.752348,1.343587 2.8855461,2.8855461 0 0 0 1.058333,3.941878 l 4.997628,2.886646 a 2.8855461,2.8855461 0 0 0 3.941878,-1.056266 2.8855461,2.8855461 0 0 0 -1.056266,-3.941879 l -4.999695,-2.885612 a 2.8855461,2.8855461 0 0 0 -2.18953,-0.288354 z m 216.405917,5.17e-4 a 2.8855461,2.8855461 0 0 0 -2.19005,0.287837 l -4.99711,2.885612 a 2.8855461,2.8855461 0 0 0 -1.05834,3.941879 2.8855461,2.8855461 0 0 0 3.94136,1.056266 l 4.9997,-2.886646 a 2.8855461,2.8855461 0 0 0 1.05627,-3.941878 2.8855461,2.8855461 0 0 0 -1.75183,-1.34307 z m -108.20219,7.115328 a 2.8855461,2.8855461 0 0 0 -2.88561,2.886128 v 5.769678 a 2.8855461,2.8855461 0 0 0 2.88561,2.88664 2.8855461,2.8855461 0 0 0 2.88407,-2.88664 v -5.769678 a 2.8855461,2.8855461 0 0 0 -2.88407,-2.886128 z m 0,17.312636 a 2.8855461,2.8855461 0 0 0 -2.88561,2.88561 v 5.77019 a 2.8855461,2.8855461 0 0 0 2.88561,2.88665 2.8855461,2.8855461 0 0 0 2.88407,-2.88665 v -5.77019 a 2.8855461,2.8855461 0 0 0 -2.88407,-2.88561 z m -63.220426,1.54306 a 2.8855461,2.8855461 0 0 0 -1.754415,1.34255 2.8855461,2.8855461 0 0 0 1.057816,3.94188 l 4.997111,2.88613 a 2.8855461,2.8855461 0 0 0 3.941878,-1.05782 2.8855461,2.8855461 0 0 0 -1.055232,-3.94187 l -4.999695,-2.88355 a 2.8855461,2.8855461 0 0 0 -2.187463,-0.28732 z m 126.441376,0 a 2.8855461,2.8855461 0 0 0 -2.19005,0.28732 l -4.99969,2.88355 a 2.8855461,2.8855461 0 0 0 -1.05523,3.94187 2.8855461,2.8855461 0 0 0 3.94187,1.05782 l 4.99712,-2.88613 a 2.8855461,2.8855461 0 0 0 1.05781,-3.94188 2.8855461,2.8855461 0 0 0 -1.75183,-1.34255 z m -111.44901,8.65477 a 2.8855461,2.8855461 0 0 0 -1.752865,1.34462 2.8855461,2.8855461 0 0 0 1.056265,3.94136 l 4.9997,2.88665 a 2.8855461,2.8855461 0 0 0 3.94187,-1.05627 2.8855461,2.8855461 0 0 0 -1.05781,-3.94136 l -4.99815,-2.88665 a 2.8855461,2.8855461 0 0 0 -2.18901,-0.28835 z m 96.45458,10e-4 a 2.8855461,2.8855461 0 0 0 -2.19005,0.28732 l -4.99711,2.88665 a 2.8855461,2.8855461 0 0 0 -1.05782,3.94136 2.8855461,2.8855461 0 0 0 3.94136,1.05627 l 4.9997,-2.88665 a 2.8855461,2.8855461 0 0 0 1.05575,-3.94136 2.8855461,2.8855461 0 0 0 -1.75183,-1.34359 z m -48.22652,7.11533 a 2.8855461,2.8855461 0 0 0 -2.88561,2.88406 v 5.77278 a 2.8855461,2.8855461 0 0 0 2.88561,2.88561 2.8855461,2.8855461 0 0 0 2.88407,-2.88561 v -5.77278 a 2.8855461,2.8855461 0 0 0 -2.88407,-2.88406 z m -33.23414,1.54047 a 2.8855461,2.8855461 0 0 0 -1.75183,1.34359 2.8855461,2.8855461 0 0 0 1.05523,3.94188 l 4.99814,2.88613 a 2.8855461,2.8855461 0 0 0 3.94085,-1.05523 2.8855461,2.8855461 0 0 0 -1.05523,-3.94188 l -4.99712,-2.88613 a 2.8855461,2.8855461 0 0 0 -2.19004,-0.28836 z m 66.46622,0 a 2.8855461,2.8855461 0 0 0 -2.18953,0.28836 l -4.99762,2.88613 a 2.8855461,2.8855461 0 0 0 -1.05575,3.94188 2.8855461,2.8855461 0 0 0 3.94187,1.05523 l 4.99763,-2.88613 a 2.8855461,2.8855461 0 0 0 1.05524,-3.94188 2.8855461,2.8855461 0 0 0 -1.75184,-1.34359 z m -51.47179,8.65632 a 2.8855461,2.8855461 0 0 0 -1.75183,1.34566 2.8855461,2.8855461 0 0 0 1.05575,3.94188 l 4.99711,2.88406 a 2.8855461,2.8855461 0 0 0 3.94188,-1.05575 2.8855461,2.8855461 0 0 0 -1.05575,-3.94188 l -4.99711,-2.88613 a 2.8855461,2.8855461 0 0 0 -2.19005,-0.28784 z m 36.47736,0 a 2.8855461,2.8855461 0 0 0 -2.19005,0.28784 l -4.99711,2.88613 a 2.8855461,2.8855461 0 0 0 -1.05575,3.94188 2.8855461,2.8855461 0 0 0 3.94188,1.05575 l 4.99711,-2.88406 a 2.8855461,2.8855461 0 0 0 1.05575,-3.94188 2.8855461,2.8855461 0 0 0 -1.75183,-1.34566 z m -18.23765,7.11585 a 2.8855461,2.8855461 0 0 0 -2.3766,1.65675 2.8855461,2.8855461 0 0 0 -2.62309,1.22989 2.8855461,2.8855461 0 0 0 0.24598,2.88458 2.8855461,2.8855461 0 0 0 -0.24598,2.8851 2.8855461,2.8855461 0 0 0 2.62309,1.22938 2.8855461,2.8855461 0 0 0 2.3766,1.65675 2.8855461,2.8855461 0 0 0 2.57504,-1.63091 2.8855461,2.8855461 0 0 0 2.42259,-1.25522 2.8855461,2.8855461 0 0 0 5.2e-4,-2.8851 2.8855461,2.8855461 0 0 0 -5.2e-4,-2.88458 2.8855461,2.8855461 0 0 0 -1.75235,-1.34668 2.8855461,2.8855461 0 0 0 -0.67024,0.0894 2.8855461,2.8855461 0 0 0 -2.57504,-1.62936 z m -11.74863,10.19886 a 2.8855461,2.8855461 0 0 0 -2.19005,0.28732 l -4.99711,2.88406 a 2.8855461,2.8855461 0 0 0 -1.05575,3.94188 2.8855461,2.8855461 0 0 0 3.94188,1.05782 l 4.99711,-2.88561 a 2.8855461,2.8855461 0 0 0 1.05575,-3.94188 2.8855461,2.8855461 0 0 0 -1.75183,-1.34359 z m 23.4952,0 a 2.8855461,2.8855461 0 0 0 -1.75183,1.34359 2.8855461,2.8855461 0 0 0 1.05575,3.94188 l 4.99711,2.88561 a 2.8855461,2.8855461 0 0 0 3.94188,-1.05782 2.8855461,2.8855461 0 0 0 -1.05575,-3.94188 l -4.99711,-2.88406 a 2.8855461,2.8855461 0 0 0 -2.19005,-0.28732 z m -11.74657,7.11326 a 2.8855461,2.8855461 0 0 0 -2.88561,2.88613 v 5.77226 a 2.8855461,2.8855461 0 0 0 2.88561,2.88406 2.8855461,2.8855461 0 0 0 2.88407,-2.88406 v -5.77226 a 2.8855461,2.8855461 0 0 0 -2.88407,-2.88613 z m -26.74358,1.54306 a 2.8855461,2.8855461 0 0 0 -2.18902,0.28784 l -4.99814,2.88561 a 2.8855461,2.8855461 0 0 0 -1.05523,3.94188 2.8855461,2.8855461 0 0 0 3.94187,1.05575 l 4.99712,-2.88613 a 2.8855461,2.8855461 0 0 0 1.05523,-3.94188 2.8855461,2.8855461 0 0 0 -1.75183,-1.34307 z m 53.48459,0 a 2.8855461,2.8855461 0 0 0 -1.75183,1.34307 2.8855461,2.8855461 0 0 0 1.05575,3.94188 l 4.99762,2.88613 a 2.8855461,2.8855461 0 0 0 3.94137,-1.05575 2.8855461,2.8855461 0 0 0 -1.05524,-3.94188 l -4.99763,-2.88561 a 2.8855461,2.8855461 0 0 0 -2.19004,-0.28784 z m -68.47593,8.6558 a 2.8855461,2.8855461 0 0 0 -2.19004,0.28784 l -4.9997,2.88664 a 2.8855461,2.8855461 0 0 0 -1.056265,3.94137 2.8855461,2.8855461 0 0 0 3.941875,1.05575 l 4.99815,-2.88665 a 2.8855461,2.8855461 0 0 0 1.05781,-3.94136 2.8855461,2.8855461 0 0 0 -1.75183,-1.34359 z m 83.47036,0 a 2.8855461,2.8855461 0 0 0 -1.7539,1.34359 2.8855461,2.8855461 0 0 0 1.05782,3.94136 l 4.99711,2.88665 a 2.8855461,2.8855461 0 0 0 3.94188,-1.05575 2.8855461,2.8855461 0 0 0 -1.05575,-3.94137 l -4.9997,-2.88664 a 2.8855461,2.8855461 0 0 0 -2.18746,-0.28784 z m -41.73544,7.11585 a 2.8855461,2.8855461 0 0 0 -2.88561,2.88664 v 5.76967 a 2.8855461,2.8855461 0 0 0 2.88561,2.88613 2.8855461,2.8855461 0 0 0 2.88407,-2.88613 v -5.76967 a 2.8855461,2.8855461 0 0 0 -2.88407,-2.88664 z m -56.729867,1.53995 a 2.8855461,2.8855461 0 0 0 -2.190047,0.28836 L 85.805615,183.78 a 2.8855461,2.8855461 0 0 0 -1.057816,3.94187 2.8855461,2.8855461 0 0 0 3.941878,1.05524 l 4.999695,-2.88303 a 2.8855461,2.8855461 0 0 0 1.055232,-3.94188 2.8855461,2.8855461 0 0 0 -1.751831,-1.34669 z m 113.457677,0.001 a 2.8855461,2.8855461 0 0 0 -1.75183,1.34565 2.8855461,2.8855461 0 0 0 1.05523,3.94188 l 4.99969,2.88303 a 2.8855461,2.8855461 0 0 0 3.94188,-1.05524 2.8855461,2.8855461 0 0 0 -1.05781,-3.94187 l -4.99712,-2.88613 a 2.8855461,2.8855461 0 0 0 -2.19004,-0.28732 z m -56.72781,15.77216 a 2.8855461,2.8855461 0 0 0 -2.88561,2.88665 v 5.77019 a 2.8855461,2.8855461 0 0 0 2.88561,2.88561 2.8855461,2.8855461 0 0 0 2.88407,-2.88561 v -5.77019 a 2.8855461,2.8855461 0 0 0 -2.88407,-2.88665 z m 101.70852,10.19834 a 2.8855461,2.8855461 0 0 0 -1.75183,1.34411 2.8855461,2.8855461 0 0 0 1.05834,3.94188 l 4.99711,2.88613 a 2.8855461,2.8855461 0 0 0 3.94188,-1.05524 2.8855461,2.8855461 0 0 0 -1.05627,-3.94188 l -4.9997,-2.88612 a 2.8855461,2.8855461 0 0 0 -2.18953,-0.28888 z m -203.418587,5.2e-4 a 2.8855461,2.8855461 0 0 0 -2.190047,0.28836 l -4.997628,2.88612 a 2.8855461,2.8855461 0 0 0 -1.058333,3.94188 2.8855461,2.8855461 0 0 0 3.941878,1.05524 l 4.999695,-2.88613 a 2.8855461,2.8855461 0 0 0 1.056266,-3.94188 2.8855461,2.8855461 0 0 0 -1.751831,-1.34359 z m 101.710067,7.11636 a 2.8855461,2.8855461 0 0 0 -2.88561,2.88303 v 5.77278 a 2.8855461,2.8855461 0 0 0 2.88561,2.88612 2.8855461,2.8855461 0 0 0 2.88407,-2.88612 v -5.77278 a 2.8855461,2.8855461 0 0 0 -2.88407,-2.88303 z m 0,51.93895 a 2.8855461,2.8855461 0 0 0 -2.88561,2.88613 v 5.76967 a 2.8855461,2.8855461 0 0 0 2.88561,2.88665 2.8855461,2.8855461 0 0 0 2.88407,-2.88665 v -5.76967 a 2.8855461,2.8855461 0 0 0 -2.88407,-2.88613 z" /></g><g
         id="g20"
         inkscape:label="body"
         transform="translate(8.8690292e-4,-0.00103232)"><g
           id="g27"
           style="fill:url(#linearGradient29)"><path
             id="path1"
             style="display:inline;fill:url(#linearGradient36);fill-opacity:1;stroke-width:14.181;stroke-linecap:square;stroke-linejoin:round;stroke-miterlimit:13.7;paint-order:markers stroke fill"
             d="m 58.745955,-21.13142 -70.148081,40.50016 v 80.9995 L 58.745955,140.868 128.89363,100.36824 v -80.9995 z m 0,4.72205 66.058575,38.138727 V 98.007218 L 58.745955,136.14635 -7.3126167,98.007218 V 21.729357 Z"
             transform="matrix(1.2679305,0,0,1.2679305,75.514359,74.091059)" /><path
             id="circle3"
             style="display:inline;fill:url(#linearGradient37);stroke-width:15.2336;stroke-linecap:square;stroke-linejoin:round;stroke-miterlimit:13.7;paint-order:markers stroke fill"
             d="M 218.92397,150 A 68.923965,68.923965 0 0 1 150,218.92397 68.923965,68.923965 0 0 1 81.076035,150 68.923965,68.923965 0 0 1 150,81.076035 68.923965,68.923965 0 0 1 218.92397,150 Z" /></g><g
           id="g12"
           mask="url(#mask12)"
           inkscape:label="ball"><path
             id="circle12"
             style="display:inline;fill:#f9ffff;stroke-width:13.7031;stroke-linecap:square;stroke-linejoin:round;stroke-miterlimit:13.7;paint-order:markers stroke fill"
             d="M 211.9994,150 A 61.999401,61.999401 0 0 1 150,211.9994 61.999401,61.999401 0 0 1 88.000599,150 61.999401,61.999401 0 0 1 150,88.000599 61.999401,61.999401 0 0 1 211.9994,150 Z" /><g
             id="g13"
             style="display:inline;fill:url(#linearGradient27);fill-opacity:1"><path
               style="fill:url(#linearGradient38);fill-opacity:1;stroke:none;stroke-width:10.781;stroke-linecap:round;stroke-linejoin:round;stroke-miterlimit:13.7;stroke-dasharray:none;stroke-dashoffset:150.632;stroke-opacity:1;paint-order:markers stroke fill"
               d="m 75.366247,160.98053 16.084372,-0.59953 3.947411,-5.05006 6.39701,0.30803 11.41241,9.35443 -2.80633,9.9157 9.16734,5.98683 7.67064,-2.99341 7.10937,7.85772 10.10279,-2.24506 3.36759,5.79975 -4.8643,2.80633 3.18051,8.2319 -9.79671,6.4424 -0.98407,9.48445 -43.849119,1.09821 z"
               id="path9"
               sodipodi:nodetypes="ccccccccccccccccc" /><path
               style="fill:url(#linearGradient39);fill-opacity:1;stroke:none;stroke-width:10.781;stroke-linecap:round;stroke-linejoin:round;stroke-miterlimit:13.7;stroke-dasharray:none;stroke-dashoffset:150.632;stroke-opacity:1;paint-order:markers stroke fill"
               d="m 213.65526,189.14664 c -1.12254,0 -20.48621,1.12253 -20.48621,1.12253 l -3.18051,-19.55076 7.95127,-10.19634 5.42557,0.93545 2.61924,-2.80633 -2.24506,-9.9157 -4.67722,0.37417 -5.79975,-5.98683 7.48355,-12.34786 -3.92886,-5.98683 -9.54153,3.36759 -5.79975,-6.5481 6.17393,-4.67722 5.98684,4.86431 3.74177,-0.74836 -0.74835,-5.05139 13.84456,-8.79317 -5.98684,-6.92227 -13.09621,14.03164 -6.73519,-5.98683 -6.36101,4.30303 -8.04481,-6.17392 3.1805,-3.92886 -6.17392,-5.425571 4.11595,-15.154183 37.41773,9.167344 24.32153,35.54684 -4.86431,27.50204 -5.23848,36.2952 z"
               id="path10"
               sodipodi:nodetypes="ccccccccccccccccccccccccccccccc" /><path
               style="fill:url(#linearGradient40);fill-opacity:1;stroke:none;stroke-width:10.781;stroke-linecap:round;stroke-linejoin:round;stroke-miterlimit:13.7;stroke-dasharray:none;stroke-dashoffset:150.632;stroke-opacity:1;paint-order:markers stroke fill"
               d="m 102.3375,133.64551 -1.6838,-12.16077 8.60608,-6.17392 -0.93544,-7.85773 3.37348,-3.89464 -15.814872,-4.337259 31.249662,-19.770806 20.48035,5.36498 -1.30962,12.909119 -3.55469,3.928866 h -8.98025 v -3.928866 l -7.10937,0.374176 -2.99342,6.5481 h 9.35443 l -0.93544,4.49013 -9.35443,5.23848 h -8.60608 l -1.49671,6.92228 -6.73519,2.61925 -0.56127,8.98025 z"
               id="path11"
               sodipodi:nodetypes="cccccccccccccccccccccc" /></g><path
             id="ellipse23"
             style="display:inline;opacity:0.45;fill:#045f96;fill-opacity:1;stroke-width:16.3335;stroke-linecap:square;stroke-linejoin:round;stroke-miterlimit:13.7;paint-order:markers stroke fill"
             d="m 208.42242,119.20306 c 1.5376,5.75692 2.33733,11.71348 2.33733,17.70073 0,38.1401 -27.20298,63.5665 -60.7596,63.5665 -33.55662,0 -60.776163,-25.80091 -60.759602,-63.5665 0.0026,-5.89543 0.786333,-11.76073 2.283064,-17.4346 -10.869183,12.86358 -16.825538,28.92204 -16.875972,45.498 9.4e-5,40.02757 33.73655,72.47626 75.35251,72.4762 41.61595,5e-5 75.35241,-32.44864 75.3525,-72.4762 -0.002,-16.67369 -5.98176,-32.8367 -16.93023,-45.76413 z"
             sodipodi:nodetypes="csssccccc" /><path
             id="path24"
             style="display:inline;opacity:0.3;fill:#f9ffff;fill-opacity:1;stroke-width:17.2026;stroke-linecap:square;stroke-linejoin:round;stroke-miterlimit:13.7;paint-order:markers stroke fill"
             d="m 84.72855,174.44787 a 64.974557,67.416498 85.941701 0 1 -1.848955,-17.77619 64.974557,67.416498 85.941701 0 1 70.073555,-62.658886 64.974557,67.416498 85.941701 0 1 64.62553,67.234786 64.974557,67.416498 85.941701 0 1 -3.26139,17.33626 83.581292,72.479376 0.56213944 0 0 20.61326,-44.83024 83.581292,72.479376 0.56213944 0 0 -80.48757,-75.262263 83.581292,72.479376 0.56213944 0 0 -86.562823,69.587333 83.581292,72.479376 0.56213944 0 0 16.848393,46.3692 z" /></g></g><g
         id="g19"
         inkscape:label="eyes"
         transform="translate(8.8690292e-4,-0.00103232)"><path
           id="path14"
           style="color:#000000;fill:#03375f;stroke-linecap:round;stroke-linejoin:round;stroke-miterlimit:13.7;stroke-dashoffset:150.632;-inkscape-stroke:none;paint-order:markers stroke fill"
           d="m 127.24598,117.48999 c -10.7162,0 -18.42161,10.02725 -18.42161,21.13307 0,11.10581 7.70541,21.13256 18.42161,21.13256 10.71621,0 18.42213,-10.02675 18.42213,-21.13256 0,-11.10582 -7.70592,-21.13307 -18.42213,-21.13307 z m 45.50782,0 c -10.71621,0 -18.42162,10.02725 -18.42162,21.13307 0,11.10581 7.70541,21.13256 18.42162,21.13256 10.7162,0 18.42213,-10.02675 18.42213,-21.13256 0,-11.10582 -7.70593,-21.13307 -18.42213,-21.13307 z m -45.50782,10.78125 c 3.67712,0 7.64088,4.06876 7.64088,10.35182 0,6.28307 -3.96376,10.35131 -7.64088,10.35131 -3.67711,0 -7.64036,-4.06824 -7.64036,-10.35131 0,-6.28306 3.96325,-10.35182 7.64036,-10.35182 z m 45.50782,0 c 3.6771,0 7.64087,4.06876 7.64087,10.35182 0,6.28307 -3.96377,10.35131 -7.64087,10.35131 -3.67712,0 -7.64036,-4.06824 -7.64036,-10.35131 0,-6.28306 3.96324,-10.35182 7.64036,-10.35182 z"
           inkscape:label="bottom" /><g
           id="g18"
           mask="url(#mask18)"><path
             id="path17"
             style="color:#000000;fill:#ffffff;stroke-linecap:round;stroke-linejoin:round;stroke-miterlimit:13.7;stroke-dashoffset:150.632;-inkscape-stroke:none;paint-order:markers stroke fill"
             d="m 127.24598,122.88035 a 13.030729,15.742708 0 0 0 -13.03073,15.74271 13.030729,15.742708 0 0 0 13.03073,15.74271 13.030729,15.742708 0 0 0 13.03073,-15.74271 13.030729,15.742708 0 0 0 -13.03073,-15.74271 z m 45.50833,0 a 13.030729,15.742708 0 0 0 -13.03073,15.74271 13.030729,15.742708 0 0 0 13.03073,15.74271 13.030729,15.742708 0 0 0 13.03073,-15.74271 13.030729,15.742708 0 0 0 -13.03073,-15.74271 z"
             inkscape:label="top" /></g></g></g></g></svg>
